<?xml version="1.0" encoding="utf-8"?>
<!-- Generator: Adobe Illustrator 26.3.1, SVG Export Plug-In . SVG Version: 6.00 Build 0)  -->
<svg version="1.1" id="レイヤー_1" xmlns="http://www.w3.org/2000/svg" xmlns:xlink="http://www.w3.org/1999/xlink" x="0px"
	 y="0px" viewBox="0 0 361.3 34" style="enable-background:new 0 0 361.3 34;" xml:space="preserve">
<style type="text/css">
	.st0{fill:#1264AF;}
	.st1{enable-background:new    ;}
	.st2{fill:#FFFFFF;}
</style>
<g transform="translate(-7774.342 -5420)">
	<g>
		<rect x="7870.2" y="5442" class="st0" width="132" height="12"/>
	</g>
	<g class="st1">
		<path class="st2" d="M7817.4,5427.2c2.4,3.4,6,6.5,9.4,8.1c-0.7,0.7-1.2,1.5-1.7,2.3c-1.4-0.8-2.8-1.8-4.2-2.9v1.8h-9.3v-1.8
			c-1.3,1.1-2.6,2.1-4.1,2.9c-0.3-0.6-1.1-1.5-1.6-2.1c3.7-2,7.3-5.6,8.9-8.3H7817.4z M7821.6,5438.5l2.1,0.6
			c-1.1,2.7-2.7,6.1-4,8.9l-2.8-0.8c1-1.9,2.1-4.2,2.9-6.2h-11.3v-2.5h12.6L7821.6,5438.5z M7820.2,5434.1c-1.6-1.4-3-2.9-4-4.3
			c-0.9,1.4-2.3,2.9-3.9,4.3H7820.2z"/>
		<path class="st2" d="M7836.8,5431.3c1.1-0.2,2.1-0.4,3-0.7l0.1,2.6c-1,0.3-2.4,0.5-3.9,0.8c-1.1,3.1-2.9,6.9-4.7,9.4l-2.7-1.4
			c1.7-2.2,3.5-5.4,4.5-7.8c-0.4,0-0.8,0-1.1,0c-0.9,0-1.8,0-2.8-0.1l-0.2-2.6c0.9,0.1,2.1,0.2,2.9,0.2c0.7,0,1.3,0,2-0.1
			c0.3-1.2,0.6-2.5,0.6-3.7l3,0.3C7837.5,5429,7837.2,5430.1,7836.8,5431.3z M7842.8,5437.9c0,0.6,0.1,1.7,0.1,2.8
			c1.9,0.7,3.4,1.8,4.6,2.8l-1.5,2.4c-0.8-0.7-1.8-1.6-3-2.4c0,0.1,0,0.2,0,0.2c0,2-1.1,3.6-4.2,3.6c-2.7,0-4.9-1.2-4.9-3.6
			c0-2.2,1.8-3.8,4.9-3.8c0.5,0,1,0,1.5,0.1c-0.1-1.6-0.2-3.6-0.2-4.9h2.8C7842.7,5436.1,7842.8,5437,7842.8,5437.9z M7838.4,5444.9
			c1.5,0,2-0.8,2-2c0-0.1,0-0.3,0-0.4c-0.6-0.1-1.2-0.2-1.8-0.2c-1.3,0-2.1,0.6-2.1,1.3C7836.5,5444.3,7837.2,5444.9,7838.4,5444.9z
			 M7841.3,5433.2l1.4-2.2c1.6,0.7,4.3,2.2,5.4,3l-1.6,2.3C7845.3,5435.3,7842.8,5433.9,7841.3,5433.2z"/>
		<path class="st2" d="M7854,5437.9c2-1.5,4.2-2.1,6.5-2.1c3.9,0,6.1,2.4,6.1,5c0,4-3.2,7.1-12.3,6.3l-0.8-2.9
			c6.6,0.9,10.1-0.7,10.1-3.5c0-1.4-1.4-2.5-3.3-2.5c-2.5,0-4.7,0.9-6.1,2.6c-0.4,0.5-0.6,0.8-0.8,1.3l-2.5-0.6
			c0.4-2.2,0.9-6.5,1.1-9.2l2.9,0.4C7854.6,5433.9,7854.2,5436.6,7854,5437.9z M7863.5,5430l-0.7,2.7c-2.2-0.3-7.1-1.3-8.8-1.8
			l0.7-2.6C7856.8,5428.9,7861.6,5429.8,7863.5,5430z"/>
		<path class="st2" d="M7889.2,5443.2h-8.8v4.7h-2.7v-4.7h-8.6v-2.5h8.6v-2.5h-6.4v-9.9h15.6v9.9h-6.5v2.5h8.8V5443.2z
			 M7873.8,5432.2h10.4v-1.6h-10.4V5432.2z M7873.8,5435.9h10.4v-1.6h-10.4V5435.9z"/>
		<path class="st2" d="M7898,5429.3h4.6v3.8h-1.1v1.7h-3.5v0.9h3.2v1.7h-3.2v0.9h4.4v2h-11.3v-2h4.5v-0.9h-3.3v-1.7h3.3v-0.9h-3.5
			v-1.7h-1.1v-3.8h4.5v-1.8h2.5V5429.3z M7892.3,5441.1h9.2v6.6h-2.5v-0.8h-4.4v1h-2.4V5441.1z M7900.2,5431.3h-6.9v1.6h2.2v-1.2
			h2.4v1.2h2.2V5431.3z M7894.6,5443.1v1.9h4.4v-1.9H7894.6z M7906.1,5442h-2.5v-12.3h2.5V5442z M7910.7,5427.8v17
			c0,1.5-0.3,2.2-1.1,2.6c-0.9,0.4-2.2,0.5-4,0.5c-0.1-0.7-0.5-2-0.9-2.7c1.3,0.1,2.5,0,3,0c0.4,0,0.5-0.1,0.5-0.5v-16.9H7910.7z"/>
		<path class="st2" d="M7914.4,5443.8l1.5-2c1.1,1.1,2.4,1.8,4.2,1.8c1.9,0,3.3-1,3.3-3c0-1.9-1.5-2.9-3.3-2.9
			c-1.2,0-2.1,0.2-3.2,0.9l-1.5-0.9l0.4-8h10.1v2.7h-7.3l-0.3,3.5c0.8-0.4,1.6-0.5,2.6-0.5c3,0,5.6,1.6,5.6,5.2
			c0,3.7-2.9,5.7-6.2,5.7C7917.7,5446.3,7915.9,5445.3,7914.4,5443.8z"/>
		<path class="st2" d="M7929.5,5434.5c0-3.3,1.6-5.1,4-5.1c2.3,0,4,1.9,4,5.1c0,3.3-1.7,5.2-4,5.2
			C7931.2,5439.7,7929.5,5437.8,7929.5,5434.5z M7935.2,5434.5c0-2.4-0.7-3.3-1.7-3.3c-0.9,0-1.7,0.9-1.7,3.3s0.7,3.4,1.7,3.4
			C7934.4,5437.9,7935.2,5436.9,7935.2,5434.5z M7942.9,5429.4h1.9l-8.8,16.9h-1.9L7942.9,5429.4z M7941.4,5441.1
			c0-3.3,1.6-5.1,4-5.1c2.3,0,4,1.9,4,5.1c0,3.3-1.7,5.2-4,5.2C7943,5446.3,7941.4,5444.4,7941.4,5441.1z M7947,5441.1
			c0-2.4-0.7-3.3-1.7-3.3s-1.7,0.9-1.7,3.3s0.7,3.3,1.7,3.3S7947,5443.5,7947,5441.1z"/>
		<path class="st2" d="M7951.2,5437.8c0-5.3,3-8.4,7.3-8.4s7.3,3.1,7.3,8.4c0,5.3-3,8.5-7.3,8.5S7951.2,5443.1,7951.2,5437.8z
			 M7962.4,5437.8c0-3.5-1.5-5.6-4-5.6c-2.4,0-4,2.1-4,5.6c0,3.5,1.5,5.7,4,5.7C7960.9,5443.5,7962.4,5441.3,7962.4,5437.8z"/>
		<path class="st2" d="M7969,5429.7h10v2.7h-6.8v4.2h5.8v2.7h-5.8v6.6h-3.3V5429.7z"/>
		<path class="st2" d="M7981.8,5429.7h10v2.7h-6.8v4.2h5.8v2.7h-5.8v6.6h-3.3V5429.7z"/>
	</g>
	<g class="st1">
		<path class="st2" d="M8024.2,5432.8h-7.3v-2.7h10.8v2c-3.7,4.5-4.3,7.7-4.6,13.9h-3.3C8020.1,5440.5,8021.1,5437.1,8024.2,5432.8z
			"/>
		<path class="st2" d="M8034.5,5428.3h2.1l-5.5,21.7h-2.2L8034.5,5428.3z"/>
		<path class="st2" d="M8039,5443.4h3.5v-9.9h-2.9v-2c1.6-0.3,2.8-0.7,3.8-1.4h2.4v13.2h3.1v2.6h-9.8V5443.4z"/>
		<path class="st2" d="M8051.2,5438c0-5.4,2.2-8.2,5.5-8.2c3.3,0,5.5,2.8,5.5,8.2c0,5.4-2.2,8.3-5.5,8.3
			C8053.3,5446.3,8051.2,5443.4,8051.2,5438z M8059.1,5438c0-4.4-1-5.6-2.4-5.6s-2.5,1.2-2.5,5.6c0,4.4,1.1,5.8,2.5,5.8
			S8059.1,5442.4,8059.1,5438z"/>
		<path class="st2" d="M8075.1,5429.8c0,0.2,0,0.5,0,0.9c1.8-0.1,3.6-0.3,5.6-0.6l0,2.5c-1.5,0.2-3.5,0.4-5.6,0.5c0,0.8,0,1.6,0,2.3
			c2.2-0.1,4.1-0.3,5.9-0.5l0,2.6c-2,0.2-3.7,0.4-5.8,0.4c0,0.8,0.1,1.7,0.2,2.6c2.8,0.8,4.9,2.3,6.2,3.3l-1.6,2.5
			c-1.2-1.1-2.7-2.3-4.4-3.1c0,0.3,0,0.6,0,0.8c0,1.9-1.4,3.3-4.3,3.3c-3.5,0-5.4-1.3-5.4-3.7c0-2.2,2-3.8,5.4-3.8
			c0.5,0,0.9,0,1.4,0.1c0-0.7-0.1-1.4-0.1-2c-0.4,0-0.7,0-1.1,0c-1.3,0-3.8-0.1-5.2-0.3l0-2.6c1.4,0.3,4.1,0.4,5.3,0.4
			c0.4,0,0.7,0,1.1,0c0-0.7,0-1.5,0-2.3c-0.3,0-0.5,0-0.8,0c-1.4,0-3.9-0.2-5.4-0.4l-0.1-2.5c1.6,0.3,4.1,0.5,5.4,0.5
			c0.3,0,0.6,0,0.9,0c0-0.4,0-0.8,0-1c0-0.4,0-1.1-0.1-1.5h3C8075.2,5428.6,8075.1,5429.2,8075.1,5429.8z M8070.6,5444.9
			c1.2,0,1.9-0.3,1.9-1.6c0-0.2,0-0.6,0-0.9c-0.6-0.1-1.2-0.2-1.8-0.2c-1.6,0-2.4,0.6-2.4,1.4
			C8068.3,5444.3,8069.1,5444.9,8070.6,5444.9z"/>
		<path class="st2" d="M8085.6,5430.8c1.8-0.2,5.5-0.5,9.5-0.8c2.3-0.2,4.7-0.3,6.2-0.4l0,2.8c-1.2,0-3.1,0-4.2,0.3
			c-2.7,0.7-4.7,3.5-4.7,6.2c0,3.6,3.4,4.9,7.1,5.1l-1,3c-4.6-0.3-9-2.8-9-7.5c0-3.2,1.8-5.7,3.3-6.8c-2.1,0.2-6.6,0.7-9.1,1.3
			l-0.3-3C8084.4,5430.9,8085.2,5430.8,8085.6,5430.8z M8100,5437.6l-1.7,0.7c-0.6-1.2-1-2.1-1.7-3.1l1.6-0.7
			C8098.8,5435.4,8099.6,5436.7,8100,5437.6z M8102.6,5436.5l-1.7,0.8c-0.6-1.2-1.1-2-1.8-3l1.6-0.7
			C8101.3,5434.3,8102.1,5435.6,8102.6,5436.5z"/>
	</g>
	<g>
		<path class="st2" d="M8122.7,5449l-2.8-1l7-19l2.8,1L8122.7,5449z"/>
	</g>
	<g>
		<path class="st2" d="M8128.7,5449l-2.8-1l7-19l2.8,1L8128.7,5449z"/>
	</g>
	<g>
		<path class="st2" d="M7787.3,5449l-7-19l2.8-1l7,19L7787.3,5449z"/>
	</g>
	<g>
		<path class="st2" d="M7781.3,5449l-7-19l2.8-1l7,19L7781.3,5449z"/>
	</g>
</g>
</svg>
