<?xml version="1.0" encoding="utf-8"?>
<!-- Generator: Adobe Illustrator 26.3.1, SVG Export Plug-In . SVG Version: 6.00 Build 0)  -->
<svg version="1.1" id="レイヤー_1" xmlns="http://www.w3.org/2000/svg" xmlns:xlink="http://www.w3.org/1999/xlink" x="0px"
	 y="0px" viewBox="0 0 1630 413" style="enable-background:new 0 0 1630 413;" xml:space="preserve">
<style type="text/css">
	.st0{enable-background:new    ;}
	.st1{fill:#F2F2F2;}
</style>
<g class="st0">
	<path class="st1" d="M938,152l-21.9-21.9V42.4l42.3-42.3h60.5V30h-47.5l-25,25v3.9h59.2l21.9,21.9v49.3l-21.9,21.9H938z
		 M997.2,93.4l-4.6-4.6h-46.2v28.6l4.6,4.6h41.7l4.6-4.6V93.4z"/>
	<path class="st1" d="M1089.4,152l-21.9-21.9V65.4l21.9-21.9h59.2V0.1h30.4V152H1089.4z M1148.7,73.4h-46.2l-4.6,4.6v39.5l4.6,4.6
		h46.2V73.4z"/>
	<path class="st1" d="M1237.7,152l-21.9-21.9v-23.9l21.9-21.9h59.2V78l-4.6-4.6h-70.1V43.5h83.1l21.9,21.9V152H1237.7z
		 M1296.9,112.1h-46.2l-4.6,4.6v3l4.6,4.6h46.2V112.1z"/>
	<path class="st1" d="M1388,195.4v-29.9h54.7l4.6-4.6V152H1388l-21.9-21.9V43.5h30.4v74l4.6,4.6h46.2V43.5h30.4v130l-21.9,21.9H1388
		z"/>
	<path class="st1" d="M1516.5,152v-27.8h71.2l4.6-4.6v-3.5l-4.6-4.6h-51.4l-21.9-21.9V65.4l21.9-21.9h82v27.8h-69l-4.6,4.6v3.5
		l4.6,4.6h50.6l22.8,21.9v24.3l-21.9,21.9H1516.5z"/>
</g>
<g class="st0">
	<path class="st1" d="M44.6,321.3V369H14.2V217.1h89.6l21.9,21.9v60.3l-21.9,21.9H44.6z M95.4,251.6l-4.6-4.6H44.6v44.3h46.2
		l4.6-4.6V251.6z"/>
	<path class="st1" d="M155.9,369v-29.9h21.7v-48.6h-21.7v-29.9h85.9l21.9,21.9v25.8h-30.4V295l-4.6-4.6H208v48.6h28.2V369H155.9z"/>
	<path class="st1" d="M315.8,369l-21.9-21.9v-64.7l21.9-21.9h67.7l21.9,21.9v64.7L383.5,369H315.8z M375.1,295l-4.6-4.6h-41.7
		l-4.6,4.6v39.5l4.6,4.6h41.7l4.6-4.6V295z"/>
	<path class="st1" d="M464.1,412.4v-29.9h54.7l4.6-4.6V369h-59.2l-21.9-21.9v-64.7l21.9-21.9h89.6v130l-21.9,21.9H464.1z
		 M523.3,290.4h-46.2l-4.6,4.6v39.5l4.6,4.6h46.2V290.4z"/>
	<path class="st1" d="M586,369v-29.9h21.7v-48.6H586v-29.9h85.9l21.9,21.9v25.8h-30.4V295l-4.6-4.6h-20.8v48.6h28.2V369H586z"/>
	<path class="st1" d="M742.7,369l-21.9-21.9v-23.9l21.9-21.9h59.2V295l-4.6-4.6h-70.1v-29.9h83.1l21.9,21.9V369H742.7z M801.9,329.1
		h-46.2l-4.6,4.6v3l4.6,4.6h46.2V329.1z"/>
	<path class="st1" d="M989.2,369v-74l-4.6-4.6h-23V369h-30.4v-74l-4.6-4.6h-23V369h-30.4V260.5h66.4l17.6,17.6v-17.6h40.4l21.9,21.9
		V369H989.2z"/>
	<path class="st1" d="M1176.5,369v-74l-4.6-4.6h-23V369h-30.4v-74l-4.6-4.6h-23V369h-30.4V260.5h66.4l17.6,17.6v-17.6h40.4
		l21.9,21.9V369H1176.5z"/>
	<path class="st1" d="M1239.2,369v-29.9h26v-48.6h-26v-29.9h56.4v78.6h26V369H1239.2z M1265.2,247v-29.9h30.4V247H1265.2z"/>
	<path class="st1" d="M1437.3,369v-74l-4.6-4.6h-46.2V369h-30.4V260.5h89.6l21.9,21.9V369H1437.3z"/>
	<path class="st1" d="M1527.3,412.4v-29.9h54.7l4.6-4.6V369h-59.2l-21.9-21.9v-64.7l21.9-21.9h89.6v130l-21.9,21.9H1527.3z
		 M1586.6,290.4h-46.2l-4.6,4.6v39.5l4.6,4.6h46.2V290.4z"/>
</g>
</svg>
