<?xml version="1.0" encoding="utf-8"?>
<!-- Generator: Adobe Illustrator 26.3.1, SVG Export Plug-In . SVG Version: 6.00 Build 0)  -->
<svg version="1.1" id="レイヤー_1" xmlns="http://www.w3.org/2000/svg" xmlns:xlink="http://www.w3.org/1999/xlink" x="0px"
	 y="0px" viewBox="0 0 295 329" style="enable-background:new 0 0 295 329;" xml:space="preserve">
<style type="text/css">
	.st0{fill:#7EEE3E;}
	.st1{fill:#ADF882;}
	.st2{fill:#FFFFFF;}
	.st3{enable-background:new    ;}
</style>
<g transform="translate(-572 -5892)">
	<g>
		<ellipse class="st0" cx="719.5" cy="6189" rx="145.5" ry="32"/>
	</g>
	<g>
		<rect x="574" y="6109" class="st0" width="291" height="79"/>
	</g>
	<g>
		<ellipse class="st0" cx="719.5" cy="6108.5" rx="145.5" ry="31.5"/>
	</g>
	<g>
		<ellipse class="st0" cx="719.5" cy="6108.5" rx="145.5" ry="31.5"/>
	</g>
	<g>
		<path d="M719.5,6077c-80.4,0-145.5,14.1-145.5,31.5s65.1,31.5,145.5,31.5s145.5-14.1,145.5-31.5S799.9,6077,719.5,6077
			 M719.5,6075c19.7,0,38.8,0.8,56.8,2.5c15.6,1.3,31.1,3.6,46.5,6.8c13.5,2.9,24.2,6.4,31.7,10.2c3.3,1.6,6.4,3.7,9,6.3
			c2.1,2,3.4,4.8,3.5,7.7c-0.1,2.9-1.4,5.7-3.5,7.7c-2.6,2.6-5.7,4.7-9,6.3c-7.5,3.8-18.1,7.3-31.7,10.2
			c-15.3,3.2-30.9,5.5-46.5,6.8c-18,1.6-37.1,2.5-56.8,2.5s-38.8-0.8-56.8-2.5c-15.6-1.3-31.1-3.6-46.5-6.8
			c-13.5-2.9-24.2-6.4-31.7-10.2c-3.3-1.6-6.4-3.7-9-6.3c-2.1-2-3.4-4.8-3.5-7.7c0.1-2.9,1.4-5.7,3.5-7.7c2.6-2.6,5.7-4.7,9-6.3
			c7.5-3.8,18.1-7.3,31.7-10.2c15.3-3.2,30.9-5.5,46.5-6.8C680.7,6075.8,699.8,6075,719.5,6075z"/>
	</g>
	<g>
		<ellipse class="st1" cx="719.5" cy="6097.5" rx="145.5" ry="31.5"/>
	</g>
	<g>
		<rect x="574" y="6017" class="st1" width="291" height="81"/>
	</g>
	<g>
		<ellipse class="st0" cx="719.5" cy="6017.5" rx="145.5" ry="31.5"/>
	</g>
	<g>
		<ellipse class="st1" cx="719.5" cy="6017.5" rx="145.5" ry="31.5"/>
	</g>
	<g>
		<path d="M719.5,5986c-80.4,0-145.5,14.1-145.5,31.5s65.1,31.5,145.5,31.5s145.5-14.1,145.5-31.5S799.9,5986,719.5,5986
			 M719.5,5984c19.7,0,38.8,0.8,56.8,2.5c15.6,1.3,31.1,3.6,46.5,6.8c13.5,2.9,24.2,6.4,31.7,10.2c3.3,1.6,6.4,3.7,9,6.3
			c2.1,2,3.4,4.8,3.5,7.7c-0.1,2.9-1.4,5.7-3.5,7.7c-2.6,2.6-5.7,4.7-9,6.3c-7.5,3.8-18.1,7.3-31.7,10.2
			c-15.3,3.2-30.9,5.5-46.5,6.8c-18,1.6-37.1,2.5-56.8,2.5s-38.8-0.8-56.8-2.5c-15.6-1.3-31.1-3.6-46.5-6.8
			c-13.5-2.9-24.2-6.4-31.7-10.2c-3.3-1.6-6.4-3.7-9-6.3c-2.1-2-3.4-4.8-3.5-7.7c0.1-2.9,1.4-5.7,3.5-7.7c2.6-2.6,5.7-4.7,9-6.3
			c7.5-3.8,18.1-7.3,31.7-10.2c15.3-3.2,30.9-5.5,46.5-6.8C680.7,5984.8,699.8,5984,719.5,5984z"/>
	</g>
	<g>
		<ellipse class="st2" cx="719.5" cy="6006" rx="145.5" ry="32"/>
	</g>
	<g>
		<rect x="574" y="5926" class="st2" width="291" height="80"/>
	</g>
	<g>
		<ellipse class="st2" cx="719.5" cy="5925.5" rx="145.5" ry="31.5"/>
	</g>
	<g>
		<path d="M719.5,5894c-80.4,0-145.5,14.1-145.5,31.5s65.1,31.5,145.5,31.5s145.5-14.1,145.5-31.5S799.9,5894,719.5,5894
			 M719.5,5892c19.7,0,38.8,0.8,56.8,2.5c15.6,1.3,31.1,3.6,46.5,6.8c13.5,2.9,24.2,6.4,31.7,10.2c3.3,1.6,6.4,3.7,9,6.3
			c2.1,2,3.4,4.8,3.5,7.7c-0.1,2.9-1.4,5.7-3.5,7.7c-2.6,2.6-5.7,4.7-9,6.3c-7.5,3.8-18.1,7.3-31.7,10.2
			c-15.3,3.2-30.9,5.5-46.5,6.8c-18,1.6-37.1,2.5-56.8,2.5s-38.8-0.8-56.8-2.5c-15.6-1.3-31.1-3.6-46.5-6.8
			c-13.5-2.9-24.2-6.4-31.7-10.2c-3.3-1.6-6.4-3.7-9-6.3c-2.1-2-3.4-4.8-3.5-7.7c0.1-2.9,1.4-5.7,3.5-7.7c2.6-2.6,5.7-4.7,9-6.3
			c7.5-3.8,18.1-7.3,31.7-10.2c15.3-3.2,30.9-5.5,46.5-6.8C680.7,5892.8,699.8,5892,719.5,5892z"/>
	</g>
	<g class="st3">
		<path d="M718.1,5986.1v3h-26.2v-3H703v-2.5h3.6v2.5H718.1z M717.1,6007.8c0,1.7-0.3,2.6-1.5,3.1c-1.1,0.5-2.7,0.6-4.9,0.6
			c-0.1-0.7-0.4-1.6-0.7-2.4h-7.7v1.3h-3.1v-8.1h11.5v5.8c1,0,1.9,0,2.3,0c0.5,0,0.6-0.1,0.6-0.5v-6.7h-17v10.5h-3.5v-13.5h24.1
			V6007.8z M713.2,5990.3v6.6h-16.4v-6.6H713.2z M709.6,5992.6h-9.4v1.8h9.4V5992.6z M707.5,6004.8h-5.2v2h5.2V6004.8z"/>
		<path d="M730.3,6002.8c-0.4-1-1.1-2.4-1.8-3.7v12.6h-3.3v-11.2c-0.8,2.3-1.8,4.5-2.9,6c-0.3-1-1.1-2.4-1.6-3.2
			c1.8-2.4,3.4-6.5,4.2-10.1h-3.5v-3.3h3.8v-6.2h3.3v6.2h3.3v3.3h-3.3v1.5c0.8,1.1,3.2,4.7,3.8,5.5L730.3,6002.8z M746.2,5999.2
			c-0.2-0.4-0.4-0.8-0.7-1.3c-0.8,2.3-1.8,4.4-3.1,6.3c1.9,1.9,4.2,3.4,6.8,4.3c-0.8,0.8-1.9,2.2-2.5,3.2c-2.6-1.1-4.8-2.7-6.7-4.6
			c-2,2-4.5,3.6-7.6,4.7c-0.4-0.8-1.2-2.2-1.8-2.9c3.1-1,5.5-2.5,7.3-4.5c-1.3-1.8-2.3-3.9-3.1-6.1c-0.4,0.4-0.9,0.8-1.3,1.2
			c-0.5-0.7-1.7-1.7-2.4-2.2c1.8-1.4,3.5-3.8,4.4-5.8l3.2,1.3c-0.9,1.7-2,3.5-3.3,4.9l2.3-0.6c0.6,1.6,1.4,3.2,2.4,4.6
			c0.9-1.5,1.5-3.1,1.9-4.8l3.1,0.6c-0.9-1.5-2.2-3.2-3.4-4.6l2.8-1.6c1.8,1.9,3.8,4.4,4.7,6.3L746.2,5999.2z M748.7,5991h-16.6
			v-3.3h6.5v-4.2h3.5v4.2h6.6V5991z"/>
	</g>
	<g class="st3">
		<path d="M717.4,6079.8v15h-3.8v-1.5h-6.8v9.4H703v-9.4h-6.7v1.7h-3.6v-15.1H703v-5.2h3.8v5.2H717.4z M703,6089.7v-6.4h-6.7v6.4
			H703z M713.6,6089.7v-6.4h-6.8v6.4H713.6z"/>
		<path d="M748.4,6094.8h-11.5v4c0,1.9-0.4,2.8-1.9,3.3c-1.4,0.5-3.3,0.6-5.8,0.6c-0.2-1-0.9-2.5-1.5-3.5c1.9,0.1,4.1,0.1,4.7,0.1
			c0.6,0,0.8-0.1,0.8-0.5v-3.9h-11.5v-3.3h11.5v-2h1.7c0.8-0.5,1.6-1,2.3-1.6H727v-3.1h13.5l0.8-0.2l2.2,1.7c-1.7,1.8-4,3.8-6.5,5.2
			h11.3V6094.8z M725.4,6086.6h-3.4v-7.3h4.1c-0.5-1-1.4-2.2-2.1-3.1l3-1.4c1.1,1.2,2.2,2.8,2.7,3.9l-1.1,0.5h4.7
			c-0.4-1.2-1.2-2.6-1.9-3.8l3.1-1.1c1,1.3,2,3.1,2.3,4.3l-1.4,0.6h4.5c1-1.4,2-3.2,2.6-4.6l3.9,1.2c-0.8,1.1-1.7,2.3-2.5,3.4h4v7.3
			h-3.5v-4.1h-19.1V6086.6z"/>
	</g>
	<g class="st3">
		<path d="M699.4,6174.5c-1,4.5-2.6,10-5.1,13.3c-0.9-0.6-2.5-1.4-3.5-1.9c2.4-3,3.9-8.3,4.5-12.2L699.4,6174.5z M707,6167v23.1
			c0,2.2-0.5,3.2-1.8,3.8c-1.4,0.6-3.4,0.7-6.4,0.7c-0.2-1-0.9-2.7-1.4-3.7c2,0.1,4.2,0.1,4.8,0.1c0.7,0,0.9-0.2,0.9-0.8V6167H707z
			 M713.8,6173.5c2.4,4.3,4.9,9.7,5.6,13.4l-3.9,1.5c-0.6-3.6-2.9-9.3-5.2-13.6L713.8,6173.5z"/>
		<path d="M748.4,6186.8h-11.5v4c0,1.9-0.4,2.8-1.9,3.3c-1.4,0.5-3.3,0.6-5.8,0.6c-0.2-1-0.9-2.5-1.5-3.5c1.9,0.1,4.1,0.1,4.7,0.1
			c0.6,0,0.8-0.1,0.8-0.5v-3.9h-11.5v-3.3h11.5v-2h1.7c0.8-0.5,1.6-1,2.3-1.6H727v-3.1h13.5l0.8-0.2l2.2,1.7c-1.7,1.8-4,3.8-6.5,5.2
			h11.3V6186.8z M725.4,6178.6h-3.4v-7.3h4.1c-0.5-1-1.4-2.2-2.1-3.1l3-1.4c1.1,1.2,2.2,2.8,2.7,3.9l-1.1,0.5h4.7
			c-0.4-1.2-1.2-2.6-1.9-3.8l3.1-1.1c1,1.3,2,3.1,2.3,4.3l-1.4,0.6h4.5c1-1.4,2-3.2,2.6-4.6l3.9,1.2c-0.8,1.1-1.7,2.3-2.5,3.4h4v7.3
			h-3.5v-4.1h-19.1V6178.6z"/>
	</g>
</g>
</svg>
