<svg xmlns="http://www.w3.org/2000/svg" width="540" height="856" viewBox="0 0 540 856"><g transform="translate(-13052 4184)"><path d="M45,4,3.463,76H86.537L45,4m0-4L90,78H0Z" transform="translate(13097 -3950)" fill="#f8f8f8"/><path d="M45,4,3.463,76H86.537L45,4m0-4L90,78H0Z" transform="translate(13187 -3950)" fill="#f8f8f8"/><path d="M45,4,3.463,76H86.537L45,4m0-4L90,78H0Z" transform="translate(13277 -3950)" fill="#f8f8f8"/><path d="M45,4,3.463,76H86.537L45,4m0-4L90,78H0Z" transform="translate(13367 -3950)" fill="#f8f8f8"/><path d="M44.5,4.036,3.444,76H85.556L44.5,4.036M44.5,0,89,78H0Z" transform="translate(13457 -3950)" fill="#f8f8f8"/><path d="M45,3.964,3.485,75H86.515L45,3.964M45,0,90,77H0Z" transform="translate(13052 -3872)" fill="#f8f8f8"/><path d="M45,3.964,3.485,75H86.515L45,3.964M45,0,90,77H0Z" transform="translate(13142 -3872)" fill="#f8f8f8"/><path d="M45,3.964,3.485,75H86.515L45,3.964M45,0,90,77H0Z" transform="translate(13232 -3872)" fill="#f8f8f8"/><path d="M45,3.964,3.485,75H86.515L45,3.964M45,0,90,77H0Z" transform="translate(13322 -3872)" fill="#f8f8f8"/><path d="M45,3.964,3.485,75H86.515L45,3.964M45,0,90,77H0Z" transform="translate(13412 -3872)" fill="#f8f8f8"/><path d="M45,4,3.463,76H86.537L45,4m0-4L90,78H0Z" transform="translate(13097 -3795)" fill="#f8f8f8"/><path d="M45,4,3.463,76H86.537L45,4m0-4L90,78H0Z" transform="translate(13187 -3795)" fill="#f8f8f8"/><path d="M45,4,3.463,76H86.537L45,4m0-4L90,78H0Z" transform="translate(13277 -3795)" fill="#f8f8f8"/><path d="M45,4,3.463,76H86.537L45,4m0-4L90,78H0Z" transform="translate(13367 -3795)" fill="#f8f8f8"/><path d="M44.5,4.036,3.444,76H85.556L44.5,4.036M44.5,0,89,78H0Z" transform="translate(13457 -3795)" fill="#f8f8f8"/><path d="M45,4.041,3.441,77H86.559L45,4.041M45,0,90,79H0Z" transform="translate(13052 -3717)" fill="#f8f8f8"/><path d="M45,4.041,3.441,77H86.559L45,4.041M45,0,90,79H0Z" transform="translate(13142 -3717)" fill="#f8f8f8"/><path d="M45,4.041,3.441,77H86.559L45,4.041M45,0,90,79H0Z" transform="translate(13232 -3717)" fill="#f8f8f8"/><path d="M45,4.041,3.441,77H86.559L45,4.041M45,0,90,79H0Z" transform="translate(13322 -3717)" fill="#f8f8f8"/><path d="M45,4.041,3.441,77H86.559L45,4.041M45,0,90,79H0Z" transform="translate(13412 -3717)" fill="#f8f8f8"/><path d="M45,4,3.463,76H86.537L45,4m0-4L90,78H0Z" transform="translate(13097 -3638)" fill="#f8f8f8"/><path d="M45,4,3.463,76H86.537L45,4m0-4L90,78H0Z" transform="translate(13187 -3638)" fill="#f8f8f8"/><path d="M45,4,3.463,76H86.537L45,4m0-4L90,78H0Z" transform="translate(13277 -3638)" fill="#f8f8f8"/><path d="M45,4,3.463,76H86.537L45,4m0-4L90,78H0Z" transform="translate(13367 -3638)" fill="#f8f8f8"/><path d="M44.5,4.036,3.444,76H85.556L44.5,4.036M44.5,0,89,78H0Z" transform="translate(13457 -3638)" fill="#f8f8f8"/><path d="M45,4,3.463,76H86.537L45,4m0-4L90,78H0Z" transform="translate(13052 -4184)" fill="#f8f8f8"/><path d="M45,4,3.463,76H86.537L45,4m0-4L90,78H0Z" transform="translate(13142 -4184)" fill="#f8f8f8"/><path d="M45,4,3.463,76H86.537L45,4m0-4L90,78H0Z" transform="translate(13232 -4184)" fill="#f8f8f8"/><path d="M45,4,3.463,76H86.537L45,4m0-4L90,78H0Z" transform="translate(13322 -4184)" fill="#f8f8f8"/><path d="M45,4,3.463,76H86.537L45,4m0-4L90,78H0Z" transform="translate(13412 -4184)" fill="#f8f8f8"/><path d="M45,3.964,3.485,75H86.515L45,3.964M45,0,90,77H0Z" transform="translate(13097 -4106)" fill="#f8f8f8"/><path d="M45,3.964,3.485,75H86.515L45,3.964M45,0,90,77H0Z" transform="translate(13187 -4106)" fill="#f8f8f8"/><path d="M45,3.964,3.485,75H86.515L45,3.964M45,0,90,77H0Z" transform="translate(13277 -4106)" fill="#f8f8f8"/><path d="M45,3.964,3.485,75H86.515L45,3.964M45,0,90,77H0Z" transform="translate(13367 -4106)" fill="#f8f8f8"/><path d="M44.5,4,3.466,75H85.534L44.5,4m0-4L89,77H0Z" transform="translate(13457 -4106)" fill="#f8f8f8"/><path d="M45,4.041,3.441,77H86.559L45,4.041M45,0,90,79H0Z" transform="translate(13052 -4029)" fill="#f8f8f8"/><path d="M45,4.041,3.441,77H86.559L45,4.041M45,0,90,79H0Z" transform="translate(13142 -4029)" fill="#f8f8f8"/><path d="M45,4.041,3.441,77H86.559L45,4.041M45,0,90,79H0Z" transform="translate(13232 -4029)" fill="#f8f8f8"/><path d="M45,4.041,3.441,77H86.559L45,4.041M45,0,90,79H0Z" transform="translate(13322 -4029)" fill="#f8f8f8"/><path d="M45,4.041,3.441,77H86.559L45,4.041M45,0,90,79H0Z" transform="translate(13412 -4029)" fill="#f8f8f8"/><path d="M44.5,4,3.466,75H85.534L44.5,4m0-4L89,77H0Z" transform="translate(13502 -3872)" fill="#f8f8f8"/><path d="M44.5,4.075,3.422,77H85.578L44.5,4.075M44.5,0,89,79H0Z" transform="translate(13502 -3717)" fill="#f8f8f8"/><path d="M44.5,4.036,3.444,76H85.556L44.5,4.036M44.5,0,89,78H0Z" transform="translate(13502 -4184)" fill="#f8f8f8"/><path d="M44.5,4.075,3.422,77H85.578L44.5,4.075M44.5,0,89,79H0Z" transform="translate(13502 -4029)" fill="#f8f8f8"/><path d="M45,3.964,3.485,75H86.515L45,3.964M45,0,90,77H0Z" transform="translate(13053 -3560)" fill="#f8f8f8"/><path d="M45,3.964,3.485,75H86.515L45,3.964M45,0,90,77H0Z" transform="translate(13143 -3560)" fill="#f8f8f8"/><path d="M44.5,4,3.466,75H85.534L44.5,4m0-4L89,77H0Z" transform="translate(13233 -3560)" fill="#f8f8f8"/><path d="M45.5,3.931,3.5,75H87.5L45.5,3.931M45.5,0,91,77H0Z" transform="translate(13322 -3560)" fill="#f8f8f8"/><path d="M44.5,4,3.466,75H85.534L44.5,4m0-4L89,77H0Z" transform="translate(13413 -3560)" fill="#f8f8f8"/><path d="M45,3.964,3.485,75H86.515L45,3.964M45,0,90,77H0Z" transform="translate(13502 -3560)" fill="#f8f8f8"/><path d="M45,4,3.463,76H86.537L45,4m0-4L90,78H0Z" transform="translate(13098 -3483)" fill="#f8f8f8"/><path d="M44.5,4.036,3.444,76H85.556L44.5,4.036M44.5,0,89,78H0Z" transform="translate(13188 -3483)" fill="#f8f8f8"/><path d="M45,4,3.463,76H86.537L45,4m0-4L90,78H0Z" transform="translate(13277 -3483)" fill="#f8f8f8"/><path d="M45,4,3.463,76H86.537L45,4m0-4L90,78H0Z" transform="translate(13367 -3483)" fill="#f8f8f8"/><path d="M45,4,3.463,76H86.537L45,4m0-4L90,78H0Z" transform="translate(13457 -3483)" fill="#f8f8f8"/><path d="M45,3.964,3.485,75H86.515L45,3.964M45,0,90,77H0Z" transform="translate(13053 -3405)" fill="#f8f8f8"/><path d="M45,3.964,3.485,75H86.515L45,3.964M45,0,90,77H0Z" transform="translate(13143 -3405)" fill="#f8f8f8"/><path d="M44.5,4,3.466,75H85.534L44.5,4m0-4L89,77H0Z" transform="translate(13233 -3405)" fill="#f8f8f8"/><path d="M45.5,3.931,3.5,75H87.5L45.5,3.931M45.5,0,91,77H0Z" transform="translate(13322 -3405)" fill="#f8f8f8"/><path d="M44.5,4,3.466,75H85.534L44.5,4m0-4L89,77H0Z" transform="translate(13413 -3405)" fill="#f8f8f8"/><path d="M45,3.964,3.485,75H86.515L45,3.964M45,0,90,77H0Z" transform="translate(13502 -3405)" fill="#f8f8f8"/></g></svg>