<?xml version="1.0" encoding="utf-8"?>
<!-- Generator: Adobe Illustrator 26.3.1, SVG Export Plug-In . SVG Version: 6.00 Build 0)  -->
<svg version="1.1" id="レイヤー_1" xmlns="http://www.w3.org/2000/svg" xmlns:xlink="http://www.w3.org/1999/xlink" x="0px"
	 y="0px" viewBox="0 0 504.9 574.8" style="enable-background:new 0 0 504.9 574.8;" xml:space="preserve">
<style type="text/css">
	.st0{enable-background:new    ;}
	.st1{fill:#FFFFFF;}
	.st2{fill:#7EEE3E;}
</style>
<g transform="translate(-51 -3626)">
	<g class="st0">
		<path class="st1" d="M179.1,4148.7c4.1-4,6.6-6.6,6.6-8.8c0-1.6-0.8-2.6-2.5-2.6c-1.2,0-2.1,0.7-2.9,1.6l-1.3-1.3
			c1.3-1.4,2.6-2.2,4.5-2.2c2.7,0,4.4,1.7,4.4,4.3c0,2.6-2.4,5.3-5.4,8.5c0.7-0.1,1.7-0.1,2.4-0.1h3.7v2h-9.5V4148.7z"/>
		<path class="st1" d="M191.6,4142.8c0-4.8,1.8-7.4,4.8-7.4c2.9,0,4.8,2.6,4.8,7.4c0,4.8-1.8,7.5-4.8,7.5
			C193.4,4150.3,191.6,4147.6,191.6,4142.8z M198.9,4142.8c0-4.1-1.1-5.6-2.6-5.6s-2.6,1.4-2.6,5.6s1.1,5.7,2.6,5.7
			S198.9,4146.9,198.9,4142.8z"/>
		<path class="st1" d="M204.7,4148.1h3.2v-9.8h-2.6v-1.5c1.4-0.2,2.4-0.6,3.2-1.1h1.7v12.4h2.9v1.9h-8.4V4148.1z"/>
		<path class="st1" d="M216,4148.3l1.1-1.5c0.8,0.8,1.9,1.6,3.4,1.6c1.7,0,2.9-1.1,2.9-2.9s-1.1-2.9-2.8-2.9c-0.9,0-1.5,0.3-2.4,0.8
			l-1.1-0.7l0.4-7h7.5v1.9h-5.5l-0.3,3.8c0.6-0.3,1.2-0.5,2-0.5c2.5,0,4.5,1.4,4.5,4.5c0,3.1-2.4,4.9-5,4.9
			C218.5,4150.3,217,4149.3,216,4148.3z"/>
	</g>
	<g class="st0">
		<path class="st1" d="M371,4149.1c4.6-4.4,7.7-7.4,7.7-10c0-1.8-1-2.8-2.7-2.8c-1.3,0-2.4,0.9-3.3,1.8l-1.9-1.9
			c1.6-1.8,3.2-2.7,5.6-2.7c3.4,0,5.6,2.1,5.6,5.4c0,3-2.8,6.1-6,9.5c0.9-0.1,2.1-0.2,2.9-0.2h3.9v3H371V4149.1z"/>
		<path class="st1" d="M386.4,4142.4c0-5.9,2.4-8.9,6-8.9s6,3.1,6,8.9c0,5.9-2.4,9.1-6,9.1S386.4,4148.2,386.4,4142.4z
			 M395.1,4142.4c0-4.8-1.1-6.1-2.7-6.1s-2.7,1.3-2.7,6.1c0,4.8,1.2,6.3,2.7,6.3S395.1,4147.2,395.1,4142.4z"/>
		<path class="st1" d="M401.7,4149.1c4.6-4.4,7.7-7.4,7.7-10c0-1.8-1-2.8-2.7-2.8c-1.3,0-2.4,0.9-3.3,1.8l-1.9-1.9
			c1.6-1.8,3.2-2.7,5.6-2.7c3.4,0,5.6,2.1,5.6,5.4c0,3-2.8,6.1-6,9.5c0.9-0.1,2.1-0.2,2.9-0.2h3.9v3h-11.9V4149.1z"/>
		<path class="st1" d="M416.6,4149l1.6-2.3c1,1,2.3,1.8,3.9,1.8c1.8,0,3.1-1.1,3.1-3c0-1.9-1.2-3-3-3c-1.1,0-1.6,0.3-2.7,0.9l-1.6-1
			l0.5-8.6h9.5v3h-6.5l-0.3,3.8c0.7-0.3,1.3-0.5,2.1-0.5c3,0,5.5,1.7,5.5,5.4c0,3.8-2.9,6-6.2,6C419.8,4151.4,418,4150.3,416.6,4149
			z"/>
	</g>
	<g>
		<path class="st1" d="M154.7,3974.4v125.3h101.8v-125.3H154.7 M150.8,3970.4h109.6v133.1H150.8V3970.4z"/>
	</g>
	<g>
		<rect x="346.5" y="3766.9" class="st1" width="109.6" height="336.6"/>
	</g>
	<g>
		<path class="st1" d="M260.2,3973.2l-3.6-1.6l90-203.5l3.6,1.6L260.2,3973.2z"/>
	</g>
	<g class="st0">
		<path class="st1" d="M170.1,3942.6h3.2v-9.8h-2.6v-1.5c1.4-0.2,2.4-0.6,3.2-1.1h1.7v12.4h2.9v1.9h-8.4V3942.6z"/>
		<path class="st1" d="M188.7,3932.1h-6.9v-1.9h9.5v1.4c-3.4,4.2-4,7.3-4.2,12.9h-2.4C184.9,3939.3,185.9,3936,188.7,3932.1z"/>
		<path class="st1" d="M201.5,3931c0,1.2-0.1,2.5-0.2,3.7h8.9c0,0,0,0.6,0,0.9c-0.3,6.3-0.7,8.7-1.5,9.5c-0.5,0.6-1,0.7-1.9,0.8
			c-0.8,0.1-2.1,0.1-3.5,0c0-0.5-0.3-1.3-0.6-1.8c1.4,0.1,2.8,0.1,3.4,0.1c0.5,0,0.7,0,0.9-0.2c0.6-0.5,0.9-2.6,1.1-7.5h-7.1
			c-0.6,3.8-2,7.4-5.9,9.6c-0.3-0.5-0.9-1.1-1.3-1.5c5.3-2.9,5.6-8.6,5.7-13.6h-5.1v-1.8h17.4v1.8H201.5z"/>
		<path class="st1" d="M225,3928.3c0,0.3,0,0.6-0.1,1c0.2,2.7,1.2,11.6,8.7,15.1c-0.6,0.4-1.1,1.1-1.4,1.6
			c-4.8-2.3-7.1-6.9-8.1-10.8c-1,3.8-3.1,8.1-7.7,10.8c-0.3-0.5-0.9-1.1-1.5-1.5c8-4.3,7.9-13.5,8-16.2H225z"/>
	</g>
	<g class="st0">
		<path class="st2" d="M327.2,3737.8h-7.6v-2.4l6.6-10.6h4.2v10.3h2.1v2.7h-2.1v4.3h-3.3V3737.8z M327.2,3735.1v-3.5
			c0-1,0.1-2.7,0.1-3.7h-0.1c-0.4,0.9-0.9,1.8-1.4,2.8l-2.8,4.4H327.2z"/>
		<path class="st2" d="M335.1,3739.9l1.7-2.2c1.1,1,2.4,1.8,4,1.8c1.8,0,3-0.9,3-2.4c0-1.7-1-2.7-4.9-2.7v-2.5
			c3.3,0,4.3-1.1,4.3-2.6c0-1.3-0.9-2.1-2.4-2.1c-1.3,0-2.3,0.6-3.4,1.6l-1.8-2.2c1.5-1.3,3.2-2.2,5.3-2.2c3.4,0,5.8,1.7,5.8,4.7
			c0,1.9-1.1,3.2-3,3.9v0.1c2,0.5,3.5,2,3.5,4.3c0,3.2-2.9,5-6.2,5C338.2,3742.4,336.3,3741.4,335.1,3739.9z"/>
		<path class="st2" d="M359.9,3726.2c0,1.3-0.1,2.6-0.2,3.9h10.8c0,0,0,0.9-0.1,1.3c-0.4,7.4-0.8,10.3-1.7,11.3
			c-0.7,0.8-1.5,1.1-2.6,1.2c-0.9,0.1-2.6,0.1-4.2,0c-0.1-0.8-0.5-2-1-2.8c1.7,0.1,3.3,0.1,4,0.1c0.5,0,0.8,0,1.1-0.3
			c0.6-0.6,1-3,1.3-8.1h-8c-0.7,4.4-2.5,8.6-6.9,11.3c-0.4-0.8-1.3-1.8-2.1-2.3c6.2-3.5,6.4-9.8,6.5-15.6h-5.6v-2.8h21.1v2.8H359.9z
			"/>
		<path class="st2" d="M388.3,3722.3c0,0.4,0,0.9-0.1,1.4c0.2,3.3,1.4,13.7,10.3,17.9c-0.9,0.7-1.8,1.7-2.2,2.4
			c-5.4-2.7-8.1-7.6-9.5-12c-1.3,4.3-3.8,9-8.9,12c-0.5-0.7-1.4-1.6-2.4-2.3c9.6-5.3,9.2-16.2,9.4-19.4H388.3z"/>
		<path class="st2" d="M413.3,3743.2l-1.8-2.9c0.9-0.1,1.6-0.2,2.2-0.4c3.1-0.7,5.5-2.9,5.5-6.4c0-3.3-1.8-5.8-5-6.3
			c-0.3,2-0.7,4.2-1.4,6.5c-1.4,4.8-3.5,7.8-6.1,7.8c-2.7,0-4.9-2.9-4.9-7c0-5.5,4.8-10.3,11-10.3c6,0,9.7,4.1,9.7,9.4
			C422.4,3738.7,419.3,3742.3,413.3,3743.2z M406.7,3737.8c1,0,1.9-1.5,2.9-4.8c0.6-1.8,1-3.8,1.3-5.8c-4,0.8-6.1,4.3-6.1,7
			C404.8,3736.6,405.7,3737.8,406.7,3737.8z"/>
		<path class="st2" d="M440.4,3729.5c2.6,1.8,6.3,4.6,8,6.5l-2.4,2.2c-1.5-1.8-4.8-4.5-7.3-6.5v12.4h-3.1v-11.7
			c-2.2,2.3-4.8,4.4-7.6,5.9c-0.5-0.8-1.3-1.9-2-2.6c4.4-2,8.1-5.8,10.3-9.4h-9.6v-2.9h20.8v2.9H440c-0.4,0.7-0.9,1.5-1.4,2.2v2.5
			L440.4,3729.5z"/>
		<path class="st2" d="M463.9,3740.9c1.2,0.2,2.4,0.3,3.7,0.3c1,0,4.6,0,5.9,0c-0.4,0.6-0.8,2-1,2.8h-5.1c-4.8,0-8.5-0.9-11-4.5
			c-0.8,1.8-1.8,3.5-3.3,4.7c-0.4-0.6-1.4-1.5-2-1.9c2.6-2,3.6-6,4-9.2l3,0.3c-0.1,0.9-0.3,1.9-0.6,2.9c0.8,1.9,2,3.1,3.5,3.9v-8.5
			h-6.9v-8.7H471v8.7h-7.1v3h7.8v2.6h-7.8V3740.9z M456.9,3728.8h11v-3.3h-11V3728.8z"/>
	</g>
	<g>
		<path class="st1" d="M555.9,4103.5H51v-3.9h504.9V4103.5z"/>
	</g>
	<g class="st0">
		<path class="st1" d="M144.3,3641.3h5.3v26.7h-5.3V3641.3z"/>
		<path class="st1" d="M163.3,3645.8h-7.5v-4.5h20.4v4.5h-7.6v22.2h-5.3V3645.8z"/>
		<path class="st1" d="M198.9,3638.3c0,0.6-0.1,1.3-0.1,2.1c0.3,5,2.1,20.5,15.5,26.8c-1.3,1-2.6,2.5-3.3,3.6
			c-8.1-4-12.2-11.4-14.2-18.1c-1.9,6.5-5.7,13.4-13.3,18.1c-0.8-1.1-2.2-2.4-3.6-3.4c14.4-8,13.9-24.3,14.1-29H198.9z"/>
		<path class="st1" d="M231.5,3659.1c-0.7-1.2-1.9-2.8-3.1-4.3v16.3h-4.3v-13.9c-1.3,3.1-2.7,6-4.4,8.1c-0.4-1.3-1.4-3.1-2.2-4.3
			c2.6-2.9,4.8-7.6,6-12h-5v-4.1h5.5v-7.4h4.3v7.4h4.5v4.1h-4.5v1c1.4,1.2,4.8,4.6,5.5,5.5L231.5,3659.1z M251.5,3649h-3.4v16.8
			c0,2.5-0.5,3.6-2,4.3c-1.4,0.7-3.7,0.8-6.8,0.8c-0.2-1.2-0.8-3.1-1.4-4.3c2,0.1,4.2,0.1,4.8,0.1c0.6,0,0.9-0.2,0.9-0.9v-10.9
			c-2.7,4.3-6.1,8.3-9.6,10.9c-0.7-1.1-2-2.6-3.1-3.5c4.5-2.8,8.8-8.1,11.4-13.3h-8.3v-4.1h9.6v-7.3h4.6v7.3h3.4V3649z"/>
		<path class="st1" d="M274.2,3669.7l-2.7-4.3c1.4-0.1,2.4-0.4,3.3-0.6c4.6-1.1,8.2-4.4,8.2-9.6c0-5-2.7-8.7-7.6-9.5
			c-0.5,3.1-1.1,6.4-2.2,9.8c-2.2,7.3-5.3,11.7-9.2,11.7c-4,0-7.3-4.4-7.3-10.5c0-8.3,7.2-15.4,16.5-15.4c8.9,0,14.5,6.2,14.5,14
			C287.9,3662.9,283.3,3668.3,274.2,3669.7z M264.3,3661.6c1.5,0,2.9-2.3,4.4-7.1c0.8-2.7,1.5-5.7,1.9-8.7
			c-5.9,1.2-9.1,6.5-9.1,10.4C261.5,3659.9,262.9,3661.6,264.3,3661.6z"/>
		<path class="st1" d="M314.9,3649.1c3.9,2.8,9.4,6.9,12,9.8l-3.6,3.3c-2.2-2.7-7.1-6.8-11-9.8v18.6h-4.7v-17.6
			c-3.3,3.5-7.1,6.6-11.4,8.9c-0.7-1.2-2-2.9-3-3.9c6.6-3.1,12.2-8.6,15.5-14.1h-14.4v-4.4h31.2v4.4h-11.2c-0.6,1.1-1.3,2.2-2.1,3.3
			v3.7L314.9,3649.1z"/>
		<path class="st1" d="M350.2,3666.3c1.7,0.3,3.6,0.4,5.6,0.4c1.5,0,6.9,0,8.9,0c-0.6,1-1.3,3-1.5,4.1h-7.6
			c-7.2,0-12.8-1.3-16.6-6.8c-1.2,2.8-2.7,5.3-4.9,7.1c-0.6-0.9-2.1-2.3-3-2.9c3.9-3.1,5.5-8.9,6-13.8l4.5,0.5
			c-0.2,1.4-0.5,2.8-0.9,4.3c1.2,2.8,3,4.6,5.2,5.8v-12.7h-10.3V3639h25.3v13.1h-10.6v4.4h11.7v4h-11.7V3666.3z M339.7,3648.1h16.5
			v-4.9h-16.5V3648.1z"/>
		<path class="st1" d="M402.2,3652.4c-1.6,3.4-3.7,7-5.8,9.4l-3.7-2.1c0.9-1.2,1.9-2.8,2.8-4.4h-7.6v11.2c0,2.3-0.5,3.3-2.2,4
			c-1.7,0.6-4,0.6-7.1,0.6c-0.2-1.2-0.9-3-1.5-4.1c2.1,0.1,4.8,0.1,5.5,0.1c0.7,0,0.9-0.2,0.9-0.7v-11.1h-14.2v-4.1h16.4
			c-2.7-1.1-5.6-2.3-7.9-3.1l2.1-3.2c1.6,0.6,3.6,1.3,5.7,2c1.5-1,3.2-2.2,4.6-3.4h-17.4v-3.9h21.5l1-0.3l3.1,2.4
			c-2.3,2.3-5.3,4.8-8.3,6.8c1.2,0.5,2.3,0.9,3.1,1.3l-0.9,1.4h5.7l0.8-0.3L402.2,3652.4z"/>
		<path class="st1" d="M412,3654c-1.2-1.1-3.6-2.6-5.6-3.5l2.3-3.1c2,0.8,4.5,2,5.8,3.1L412,3654z M415.1,3659.2
			c-1.2,3.9-2.8,8-4.2,11.5l-3.9-2.2c1.3-2.8,3.2-7.3,4.6-11.6L415.1,3659.2z M413.4,3644.6c-1.2-1.2-3.6-2.7-5.6-3.6l2.4-3.2
			c1.9,0.8,4.5,2.3,5.7,3.3L413.4,3644.6z M421.3,3663.8c-1.2,2.7-3.1,5.7-4.9,7.5c-0.8-0.6-2.4-1.7-3.3-2.2c1.7-1.6,3.3-4,4.3-6.4
			L421.3,3663.8z M427.3,3662.4h-10.9v-23.5h10.9V3662.4z M423.5,3642.6H420v3h3.5V3642.6z M423.5,3649.1H420v3.1h3.5V3649.1z
			 M423.5,3655.6H420v3.1h3.5V3655.6z M425.7,3662.4c1.3,1.7,3,4,3.8,5.5l-3.4,2c-0.7-1.5-2.3-3.9-3.6-5.7L425.7,3662.4z
			 M432.8,3662h-3.7v-20.8h3.7V3662z M438.9,3637.5v28.8c0,2.2-0.4,3.3-1.7,4c-1.3,0.7-3.1,0.8-5.9,0.8c-0.1-1.1-0.7-2.9-1.2-4.1
			c1.8,0.1,3.6,0.1,4.1,0.1c0.6,0,0.8-0.2,0.8-0.8v-28.8H438.9z"/>
	</g>
	<g class="st0">
		<path class="st1" d="M334.8,4194.7c-0.2,1.1-0.4,2.3-0.8,3.1c-0.2-0.1-0.6-0.3-0.9-0.4c0.4-0.7,0.6-1.8,0.7-2.8L334.8,4194.7z
			 M336.1,4193.8v4.9h-1v-4.9c-0.7,0-1.3,0.1-1.8,0.1l-0.1-1l0.8,0c0.2-0.3,0.5-0.6,0.7-0.9c-0.4-0.5-1-1.2-1.5-1.7l0.5-0.7
			c0.1,0.1,0.2,0.2,0.3,0.3c0.4-0.7,0.8-1.5,1-2.2l1,0.4c-0.4,0.8-0.9,1.7-1.4,2.4c0.2,0.2,0.4,0.5,0.6,0.7c0.4-0.7,0.8-1.4,1.1-2.1
			l0.9,0.4c-0.7,1.1-1.5,2.4-2.3,3.4c0.5,0,1,0,1.5-0.1c-0.2-0.3-0.3-0.7-0.5-1l0.8-0.3c0.5,0.8,0.9,1.8,1.1,2.5l-0.8,0.4
			c0-0.2-0.1-0.4-0.2-0.6L336.1,4193.8z M337.2,4194.5c0.3,0.7,0.6,1.6,0.8,2.2l-0.9,0.3c-0.1-0.6-0.4-1.5-0.7-2.2L337.2,4194.5z
			 M343.9,4188.6c-0.4,1.3-1.2,2.3-2,3.1c0.8,0.5,1.6,0.8,2.6,1c-0.2,0.2-0.5,0.6-0.7,0.9c-1.1-0.3-2-0.7-2.8-1.3
			c-0.8,0.6-1.8,1-2.8,1.3c-0.1-0.3-0.4-0.7-0.6-0.9c0.9-0.3,1.8-0.6,2.6-1.1c-0.6-0.6-1.2-1.4-1.6-2.2l0.7-0.2h-1.3v-1h5.1l0.2,0
			L343.9,4188.6z M341.6,4197.4h2.8v1h-6.8v-1h2.9v-1.7h-2.2v-1h2.2v-1.6h1.1v1.6h2.2v1h-2.2V4197.4z M339.6,4189.3
			c0.3,0.7,0.8,1.3,1.4,1.8c0.6-0.5,1.1-1.1,1.4-1.8H339.6z"/>
		<path class="st1" d="M348,4193.1c-0.5-0.4-1.4-0.9-2.2-1.3l0.6-0.8c0.7,0.3,1.7,0.8,2.2,1.2L348,4193.1z M349.2,4194.7
			c-0.6,1.3-1.3,2.7-2,3.8l-1-0.7c0.6-0.9,1.5-2.5,2.1-3.8L349.2,4194.7z M348.7,4189.9c-0.4-0.4-1.4-1-2.1-1.3l0.6-0.8
			c0.7,0.3,1.7,0.8,2.2,1.2L348.7,4189.9z M355.6,4189.8c-0.4,0.6-0.9,1.1-1.5,1.6c0.9,0.3,1.9,0.6,3,0.7c-0.2,0.3-0.5,0.6-0.6,1
			c-1.3-0.3-2.4-0.6-3.4-1.1c-0.8,0.4-1.7,0.7-2.7,1h1v0.6h3.4v-0.6h1.1v5.6h-1.1v-2.1h-3.6c-0.2,0.8-0.7,1.6-1.5,2.3
			c-0.2-0.2-0.6-0.5-0.9-0.6c1.4-1.1,1.5-2.6,1.5-3.7v-1.4c-0.3,0.1-0.6,0.1-0.9,0.2c-0.1-0.3-0.4-0.7-0.5-1
			c1.1-0.2,2.2-0.4,3.2-0.8c-0.6-0.4-1.2-1-1.6-1.6h-1.1v-1h3.1v-1.2h1.2v1.2h3.2v1H355.6z M354.7,4194.6h-3.4c0,0.3,0,0.6-0.1,1
			h3.4V4194.6z M351.7,4189.8c0.4,0.5,0.9,0.8,1.4,1.1c0.5-0.3,0.9-0.7,1.2-1.1H351.7z"/>
		<path class="st1" d="M369.4,4191.2v1h-8.8v0.9c0,1.6-0.2,4-1.3,5.7c-0.2-0.2-0.6-0.6-0.9-0.7c1-1.5,1.1-3.5,1.1-4.9v-1.9h2.2
			c-0.1-0.4-0.3-1-0.5-1.4l0.4-0.1h-2.3v-1h4.1v-1h1.1v1h4.2v1h-1.7l0.2,0c-0.3,0.5-0.6,1.1-0.9,1.5H369.4z M365.6,4197.5h3.8v0.9
			h-8.4v-0.9h3.6v-1.3h-2.6v-0.9h2.6v-1.1h-2.1c-0.3,0.4-0.5,0.8-0.8,1.1c-0.2-0.2-0.6-0.4-0.9-0.5c0.7-0.6,1.2-1.5,1.5-2.4l1,0.2
			c-0.1,0.3-0.2,0.5-0.3,0.8h1.6v-1h1.1v1h3.1v0.9h-3.1v1.1h2.7v0.9h-2.7V4197.5z M362.3,4189.7c0.3,0.4,0.5,1,0.6,1.4l-0.4,0.1h3.2
			l-0.3-0.1c0.2-0.4,0.4-0.9,0.6-1.4H362.3z"/>
		<path class="st1" d="M378.1,4195.9c1.1,0.7,2.6,1.4,4.1,1.6c-0.3,0.2-0.6,0.7-0.7,1c-1.6-0.4-3.2-1.2-4.3-2.3v2.4h-1.1v-2.3
			c-1.1,1-2.8,1.7-4.3,2.2c-0.2-0.3-0.5-0.7-0.7-0.9c1.4-0.3,3-0.9,4-1.7h-3.7v-0.9h4.7v-0.7h-3.5v-0.8h3.5v-0.7h-4.1v-0.9h2.5
			c-0.1-0.3-0.3-0.8-0.5-1.1l0.3,0h-2.7v-0.9h1.8c-0.2-0.5-0.5-1.1-0.9-1.6l1-0.3c0.4,0.5,0.8,1.2,1,1.7l-0.6,0.2h1.3v-2.1h1v2.1
			h1.2v-2.1h1.1v2.1h1.3l-0.5-0.1c0.3-0.5,0.7-1.2,0.8-1.8l1.2,0.3c-0.3,0.6-0.7,1.2-1,1.6h1.7v0.9h-2.3c-0.2,0.4-0.5,0.8-0.7,1.1
			h2.5v0.9h-4.2v0.7h3.7v0.8h-3.7v0.7h4.7v0.9H378.1z M375,4190.7c0.2,0.3,0.4,0.8,0.5,1.1l-0.3,0.1h2.5c0.2-0.3,0.4-0.8,0.5-1.1
			H375z"/>
		<path class="st1" d="M392.6,4190.4c-0.9,1-2.1,1.7-3.5,2.3h4.1v6H392v-0.4h-4.9v0.4h-1.1v-5.2c-0.6,0.1-1.2,0.2-1.7,0.3
			c-0.1-0.3-0.5-0.7-0.7-1c3.2-0.4,6.4-1.3,7.8-3L392.6,4190.4z M387.5,4188.6c-0.7,1.1-1.8,2.1-2.7,2.7c-0.2-0.2-0.6-0.6-0.9-0.8
			c1-0.5,2-1.4,2.5-2.3L387.5,4188.6z M389.8,4190.4c0,0.5-0.1,0.8-0.6,1c-0.4,0.2-1,0.2-1.9,0.2c-0.1-0.3-0.3-0.7-0.4-1
			c0.6,0,1.3,0,1.5,0c0.2,0,0.3,0,0.3-0.2v-2.7h1.1V4190.4z M392,4193.5h-4.9v0.8h4.9V4193.5z M387.2,4195.9h4.9v-0.8h-4.9V4195.9z
			 M392,4197.5v-0.8h-4.9v0.8H392z M392.1,4188.2c0.9,0.6,2.1,1.6,2.6,2.2l-1,0.6c-0.5-0.7-1.6-1.6-2.5-2.3L392.1,4188.2z"/>
		<path class="st1" d="M400.3,4188.9h2.3c2.7,0,4.3,1.5,4.3,4.4c0,2.9-1.5,4.4-4.2,4.4h-2.4V4188.9z M402.5,4196.6
			c1.9,0,2.9-1.1,2.9-3.3c0-2.2-1-3.3-2.9-3.3h-0.8v6.6H402.5z"/>
		<path class="st1" d="M410.6,4193.2l-2.4-4.3h1.5l1.1,2.1c0.2,0.4,0.4,0.8,0.7,1.3h0.1c0.2-0.5,0.4-0.9,0.6-1.3l1-2.1h1.5l-2.4,4.4
			l2.5,4.5h-1.5l-1.2-2.2c-0.2-0.5-0.5-0.9-0.7-1.4h0c-0.2,0.5-0.5,1-0.7,1.4l-1.1,2.2H408L410.6,4193.2z"/>
		<path class="st1" d="M417.5,4196.7v-6.7c0-0.4,0-0.9-0.1-1.2h1.5c-0.1,0.4-0.1,0.8-0.1,1.2v6.6c2.1-0.6,4.9-2.1,6.4-4l0.7,1.1
			c-1.6,2-4.1,3.4-7,4.3c-0.1,0-0.4,0.1-0.6,0.3l-0.9-0.8C417.5,4197.1,417.5,4196.9,417.5,4196.7z"/>
		<path class="st1" d="M428.4,4196.7l-1-0.7c0.8-0.7,1.8-2.1,2.3-3.1l1.1,0.5C430.2,4194.5,429.1,4196,428.4,4196.7z M433.4,4189.4
			v1.1h3c0.3,0,0.8,0,1.1-0.1v1.2c-0.3,0-0.8,0-1.1,0h-3v5.7c0,0.6-0.3,1-1.1,1c-0.6,0-1.3,0-1.8-0.1l-0.1-1.2
			c0.5,0.1,1.1,0.1,1.4,0.1c0.3,0,0.4-0.1,0.5-0.4v-5.1h-3.2c-0.4,0-0.8,0-1.1,0v-1.3c0.3,0,0.7,0.1,1.1,0.1h3.2v-1.1
			c0-0.3,0-0.7-0.1-0.9h1.4C433.4,4188.6,433.4,4189.1,433.4,4189.4z M437.9,4196l-1.1,0.6c-0.5-1-1.4-2.5-2-3.2l1-0.6
			C436.4,4193.7,437.4,4195.2,437.9,4196z M436.6,4187.5c0.7,0,1.4,0.6,1.4,1.3s-0.6,1.3-1.4,1.3c-0.7,0-1.3-0.6-1.3-1.3
			S435.9,4187.5,436.6,4187.5z M436.6,4189.6c0.4,0,0.7-0.3,0.7-0.7s-0.3-0.7-0.7-0.7c-0.4,0-0.7,0.3-0.7,0.7
			S436.2,4189.6,436.6,4189.6z"/>
		<path class="st1" d="M441.8,4192.5h6.5c0.6,0,1,0,1.3-0.1v1.5c-0.3,0-0.8-0.1-1.3-0.1h-6.5c-0.7,0-1.4,0-1.8,0.1v-1.5
			C440.4,4192.4,441.1,4192.5,441.8,4192.5z"/>
		<path class="st1" d="M453.5,4189.7c0-0.4,0-0.9-0.1-1.3h1.5c0,0.4-0.1,0.9-0.1,1.3v1.9c1.6,0.5,3.9,1.3,5.1,1.9l-0.5,1.3
			c-1.3-0.7-3.2-1.4-4.5-1.9v3.7c0,0.4,0,1.1,0.1,1.5h-1.5c0.1-0.4,0.1-1.1,0.1-1.5V4189.7z"/>
		<path class="st1" d="M466.4,4189.5c1.2,0,2.4-0.2,3.5-0.3v1.1c-1.2,0.2-2.7,0.3-3.9,0.3c-0.3,0.6-0.6,1.1-0.9,1.6
			c0.4-0.2,1.1-0.4,1.5-0.4c0.8,0,1.4,0.3,1.6,1c0.7-0.3,1.4-0.6,1.9-0.9c0.4-0.2,0.8-0.3,1.1-0.5l0.5,1.1c-0.3,0.1-0.9,0.3-1.2,0.4
			c-0.6,0.2-1.4,0.6-2.2,0.9c0,0.7,0,1.6,0,2.2h-1.1c0-0.4,0-1.1,0-1.7c-1,0.6-1.7,1.1-1.7,1.8c0,0.8,0.8,1,2,1c1,0,2.3-0.1,3.3-0.3
			l0,1.2c-0.9,0.1-2.3,0.2-3.3,0.2c-1.8,0-3.2-0.4-3.2-1.9c0-1.5,1.4-2.4,2.8-3.1c-0.2-0.4-0.5-0.6-1-0.6c-0.7,0-1.5,0.4-2,0.9
			c-0.3,0.3-0.7,0.8-1.1,1.3l-1-0.8c1.4-1.3,2.2-2.5,2.7-3.5c-0.1,0-0.2,0-0.3,0c-0.5,0-1.3,0-2-0.1v-1.1c0.6,0.1,1.5,0.1,2.1,0.1
			c0.2,0,0.5,0,0.7,0c0.2-0.5,0.3-1,0.3-1.4l1.2,0.1C466.6,4188.6,466.5,4189,466.4,4189.5z"/>
		<path class="st1" d="M482.7,4197.5c0.4,0,0.5-0.3,0.6-2.1c0.3,0.2,0.7,0.4,1,0.5c-0.1,2.1-0.4,2.7-1.5,2.7h-1.6
			c-1.2,0-1.5-0.4-1.5-1.5v-4h-2.1c-0.2,2.5-0.8,4.6-3.6,5.7c-0.1-0.3-0.4-0.7-0.7-0.9c2.5-0.9,2.9-2.7,3.1-4.8h-2.9v-1.1h10.5v1.1
			h-3.3v4c0,0.4,0.1,0.5,0.5,0.5H482.7z M483.1,4189.7h-8.4v-1.1h8.4V4189.7z"/>
		<path class="st1" d="M488.4,4189.6c-0.2,1-0.6,3.2-0.6,4.5c0,0.4,0,0.8,0.1,1.3c0.2-0.5,0.4-1.1,0.6-1.5l0.6,0.5
			c-0.3,0.9-0.7,2.2-0.9,2.8c0,0.2-0.1,0.4-0.1,0.6c0,0.1,0,0.3,0,0.4l-1.1,0.1c-0.2-0.8-0.4-2.3-0.4-3.9c0-1.8,0.4-3.8,0.5-4.8
			c0-0.3,0.1-0.7,0.1-1l1.3,0.1C488.6,4188.9,488.5,4189.4,488.4,4189.6z M491.3,4195.6c0,0.5,0.4,1,1.9,1c1.1,0,2-0.1,3-0.3l0,1.3
			c-0.8,0.1-1.8,0.2-3,0.2c-2,0-3-0.7-3-1.9c0-0.4,0.1-0.9,0.2-1.5l1.1,0.1C491.3,4195,491.3,4195.3,491.3,4195.6z M495.8,4189.5
			v1.2c-1.4,0.1-3.6,0.1-5,0l0-1.2C492.1,4189.8,494.6,4189.7,495.8,4189.5z"/>
		<path class="st1" d="M502,4188.1c-0.3,0.8-0.7,1.7-1.2,2.5v8.1h-1.1v-6.3c-0.3,0.4-0.6,0.8-1,1.2c-0.1-0.3-0.4-0.9-0.6-1.2
			c1.1-1.1,2.2-2.9,2.9-4.6L502,4188.1z M505.6,4190.7v1.5h3.3v1h-3.3v1.6h3.4v1h-3.4v2.8h-1.1v-8h-0.7c-0.5,0.9-1.1,1.8-1.6,2.4
			c-0.2-0.2-0.6-0.6-0.9-0.8c1.1-1.1,2-2.8,2.6-4.6l1.1,0.3c-0.2,0.5-0.4,1-0.6,1.5h4.8v1.1H505.6z"/>
		<path class="st1" d="M520.9,4191.8c-0.5,1.5-1.2,2.9-2.1,4.1c0.4,1,0.9,1.6,1.4,1.6c0.3,0,0.5-0.6,0.5-2.2c0.3,0.3,0.7,0.5,1,0.6
			c-0.2,2.1-0.6,2.7-1.6,2.7c-0.9,0-1.6-0.7-2.1-1.8c-0.7,0.7-1.4,1.3-2.3,1.8c-0.2-0.2-0.6-0.7-0.8-0.9c1-0.6,1.9-1.2,2.6-2.1
			c-0.4-1.4-0.7-3.1-0.9-4.9h-3.8v1.5h3v0.4c-0.1,2.6-0.1,3.6-0.4,4c-0.2,0.3-0.4,0.3-0.8,0.4c-0.3,0-0.8,0-1.4,0
			c0-0.3-0.1-0.8-0.3-1c0.5,0,1,0.1,1.2,0.1c0.2,0,0.3,0,0.4-0.1c0.1-0.2,0.2-0.9,0.2-2.7h-1.9c0,1.7-0.2,4.1-1.3,5.6
			c-0.2-0.2-0.7-0.6-0.9-0.8c1-1.4,1-3.5,1-5v-3.4h4.9c0-0.6-0.1-1.3-0.1-1.9h1.2c0,0.6,0,1.3,0,1.9h2.3c-0.5-0.4-1.2-0.9-1.9-1.3
			l0.7-0.7c0.7,0.4,1.6,0.9,2.1,1.3l-0.6,0.6h1.2v1.1h-3.8c0.1,1.4,0.3,2.7,0.6,3.8c0.6-0.9,1-1.9,1.4-3L520.9,4191.8z"/>
	</g>
</g>
</svg>
