<?xml version="1.0" encoding="UTF-8"?><svg id="a" xmlns="http://www.w3.org/2000/svg" viewBox="0 0 740.99 296.41"><defs><style>.b{fill:#3fb04d;}.c{fill:#040000;}</style></defs><path class="c" d="M290.9,270.49c-.93,7.06-4.48,13.14-10.66,18.25-6.18,5.11-13.04,7.67-20.57,7.67h-27.95c-16.42,0-24.55-8.64-24.41-25.92h13.98c-.48,8.6,3.57,12.9,12.15,12.9h13.98c3.79,0,7.23-1.27,10.33-3.8,3.1-2.53,4.88-5.57,5.34-9.1h27.83Z"/><path class="c" d="M277.11,166.59h27.46l-11.96,90.89h-27.83l1.71-13.02c-2.23,8.68-7.46,13.02-15.69,13.02h-13.98c-7.62,0-13.83-2.55-18.62-7.63-4.8-5.09-6.73-11.18-5.79-18.28l5.12-38.93c.94-7.18,4.5-13.31,10.65-18.4,6.16-5.09,13.02-7.63,20.6-7.63h18.63l-2.11,13.02h-4.25c-3.83,0-7.29,1.28-10.37,3.83-3.08,2.56-4.85,5.62-5.32,9.19l-5.12,38.93c-.46,3.49,.5,6.51,2.89,9.06,2.39,2.56,5.51,3.83,9.39,3.83s7.34-1.28,10.4-3.83c3.06-2.55,4.82-5.57,5.27-9.06l6.84-51.95,2.08-13.02Z"/><path class="b" d="M278.36,153.69l1.71-13.02h27.83l-1.71,13.02h-27.83Z"/><path class="c" d="M325.12,257.47l11.96-90.89h27.83l-1.71,13.02c1.14-4.38,3.02-7.64,5.63-9.79,2.61-2.15,5.96-3.22,10.06-3.22h13.98c7.62,0,13.83,2.56,18.62,7.7,4.79,5.13,6.72,11.25,5.78,18.34l-8.53,64.85h-27.83l8.53-64.85c.47-3.57-.51-6.63-2.94-9.19-2.43-2.55-5.54-3.83-9.33-3.83s-7.29,1.28-10.37,3.83c-3.08,2.56-4.85,5.62-5.32,9.19l-8.53,64.85h-27.83Z"/><path class="c" d="M634.33,174.28c-4.79-5.13-11-7.7-18.62-7.7h-27.95c-7.58,0-14.44,2.55-20.6,7.63-6.16,5.09-9.71,11.22-10.65,18.4l-7.51,51.47c-.63,4.77,.04,9.08,2,12.94h-73.37c-3.88,0-7.01-1.28-9.39-3.83-2.39-2.55-3.35-5.57-2.89-9.06l4.14-25.6h55.78l3.41-25.92c.93-7.1-.99-13.21-5.78-18.34-4.79-5.13-11-7.7-18.62-7.7h-27.95c-7.58,0-14.44,2.55-20.6,7.63-6.16,5.09-9.71,11.22-10.65,18.4l-7.55,51.52c-.93,7.1,1,13.19,5.79,18.28,4.79,5.09,11,7.63,18.62,7.63h139.43c16.37,0,26.78-8.64,31.24-25.92h-.01v-.04h-13.96c-1.13,8.6-6.31,12.9-15.55,12.9h-13.98c-3.88,0-7.01-1.28-9.39-3.83-2.39-2.55-3.35-5.57-2.89-9.06l4.1-25.56h55.78l3.41-25.92c.93-7.1-.99-13.21-5.78-18.34Zm-161.42,18.34c.47-3.57,2.24-6.63,5.32-9.19,3.08-2.55,6.53-3.83,10.37-3.83s6.9,1.28,9.33,3.83c2.43,2.56,3.41,5.62,2.94,9.19l-1.7,12.9h-27.95l1.7-12.9Zm139.38,0l-1.7,12.9h-27.95l1.7-12.9c.47-3.57,2.24-6.63,5.32-9.19,3.08-2.55,6.53-3.83,10.37-3.83s6.9,1.28,9.33,3.83c2.43,2.56,3.41,5.62,2.94,9.19Z"/><path class="c" d="M687.23,257.47h-27.83l11.96-90.89h27.83l-3.43,26.04c2.23-8.68,5.96-15.19,11.19-19.53s11.96-6.51,20.19-6.51h13.85l-3.43,26.04h-27.83c-3.83,0-7.29,1.27-10.36,3.8-3.08,2.53-4.85,5.57-5.31,9.1l-6.84,51.95Z"/><path class="c" d="M0,257.47l15.74-116.8H85.37l-1.75,13.02H41.81l-5.25,38.93h27.95l-1.74,12.9h-27.95l-5.25,38.93h41.8l-1.75,13.02H0Z"/><path class="c" d="M97.58,257.47l12.25-90.89h27.83l-1.75,13.02c1.16-4.38,3.04-7.64,5.66-9.79,2.62-2.15,5.97-3.22,10.07-3.22h13.98c7.62,0,13.82,2.56,18.59,7.7,4.77,5.13,6.68,11.25,5.72,18.34l-8.74,64.85h-27.83l8.74-64.85c.48-3.57-.49-6.63-2.91-9.19-2.42-2.55-5.53-3.83-9.32-3.83s-7.29,1.28-10.38,3.83c-3.09,2.56-4.87,5.62-5.35,9.19l-8.74,64.85h-27.83Z"/><g><path class="c" d="M0,117.45L15.12,0h55.78c7.62,0,13.83,2.57,18.63,7.71,4.8,5.14,6.75,11.26,5.84,18.35l-.85,6.61c-.98,7.63-4.08,13.62-9.27,17.98-5.2,4.37-12.5,7.06-21.91,8.07,9.28,0,15.9,2.62,19.86,7.86,3.96,5.24,5.5,11.31,4.62,18.2l-.85,6.61c-.91,7.06-4.45,13.16-10.62,18.32-6.18,5.16-13.03,7.74-20.56,7.74H0Zm29.51-13.09h13.98c3.79,0,7.23-1.28,10.33-3.85,3.09-2.57,4.87-5.61,5.32-9.11l1.69-13.09c1.12-8.72-2.97-13.09-12.29-13.09h-13.98l-5.04,39.15Zm6.71-52.12h13.98c3.79,0,7.23-1.29,10.33-3.88,3.1-2.59,4.87-5.66,5.33-9.21l1.69-13.09c.46-3.55-.54-6.6-2.97-9.15-2.44-2.54-5.55-3.82-9.34-3.82h-13.98l-5.04,39.15Z"/><path class="c" d="M200.07,78.3h-55.78l-1.69,13.09c-.45,3.51,.52,6.55,2.91,9.11,2.39,2.57,5.52,3.85,9.4,3.85h13.97c9.23,0,14.4-4.32,15.52-12.97h13.98c-4.42,17.37-14.81,26.06-31.18,26.06h-27.95c-7.62,0-13.83-2.56-18.64-7.68-4.81-5.12-6.75-11.24-5.83-18.38l5.04-39.15c.93-7.22,4.46-13.39,10.61-18.5,6.15-5.12,13.01-7.68,20.58-7.68h27.95c7.62,0,13.83,2.58,18.63,7.74,4.8,5.16,6.74,11.31,5.83,18.44l-3.35,26.06Zm-54.1-13.09h27.95l1.67-12.97c.46-3.59-.53-6.67-2.96-9.23-2.44-2.57-5.55-3.85-9.33-3.85s-7.29,1.28-10.36,3.85c-3.08,2.57-4.84,5.65-5.3,9.23l-1.67,12.97Z"/></g></svg>