<svg xmlns="http://www.w3.org/2000/svg" width="186" height="74.404" viewBox="0 0 186 74.404"><path d="M228.291,270.49a7.027,7.027,0,0,1-2.676,4.581A7.913,7.913,0,0,1,220.452,277h-7.016q-6.183,0-6.127-6.506h3.509q-.181,3.238,3.05,3.238h3.509a4,4,0,0,0,2.593-.954,3.474,3.474,0,0,0,1.34-2.284H228.3Z" transform="translate(-155.271 -202.593)" fill="#fff"/><path d="M228.478,166.59h6.893l-3,22.815h-6.986l.429-3.268q-.84,3.268-3.938,3.268h-3.509a6.136,6.136,0,0,1-4.674-1.915,5.347,5.347,0,0,1-1.453-4.589l1.285-9.772a7.063,7.063,0,0,1,2.673-4.619,7.914,7.914,0,0,1,5.171-1.915h4.676l-.53,3.268h-1.067a3.98,3.98,0,0,0-2.6.961,3.54,3.54,0,0,0-1.335,2.307l-1.285,9.772a2.663,2.663,0,0,0,.725,2.274,3.069,3.069,0,0,0,2.357.961,3.966,3.966,0,0,0,2.611-.961,3.493,3.493,0,0,0,1.323-2.274l1.717-13.04.522-3.268Z" transform="translate(-158.919 -124.773)" fill="#fff"/><path d="M278.36,143.938l.429-3.268h6.986l-.429,3.268Z" transform="translate(-208.487 -105.36)" fill="#3fb04d"/><path d="M325.12,189.395l3-22.815h6.986l-.429,3.268a4.558,4.558,0,0,1,1.413-2.457,3.839,3.839,0,0,1,2.525-.808h3.509a6.1,6.1,0,0,1,4.674,1.933,5.4,5.4,0,0,1,1.451,4.6L346.11,189.4h-6.986l2.141-16.278a2.682,2.682,0,0,0-.738-2.307,3.094,3.094,0,0,0-2.342-.961,4,4,0,0,0-2.6.961,3.54,3.54,0,0,0-1.335,2.307L332.106,189.4H325.12Z" transform="translate(-243.51 -124.766)" fill="#fff"/><path d="M486.76,168.505a6.106,6.106,0,0,0-4.674-1.933H475.07a7.927,7.927,0,0,0-5.171,1.915,7.053,7.053,0,0,0-2.673,4.619l-1.885,12.92a5.438,5.438,0,0,0,.5,3.248H447.426a3.074,3.074,0,0,1-2.357-.961,2.663,2.663,0,0,1-.725-2.274l1.039-6.426h14l.856-6.506a5.4,5.4,0,0,0-1.451-4.6,6.106,6.106,0,0,0-4.674-1.933H447.1a7.927,7.927,0,0,0-5.171,1.915,7.053,7.053,0,0,0-2.673,4.619l-1.9,12.932a5.362,5.362,0,0,0,1.453,4.589,6.127,6.127,0,0,0,4.674,1.915h35q6.164,0,7.842-6.506h0v-.01h-3.5q-.425,3.238-3.9,3.238h-3.509a3.074,3.074,0,0,1-2.357-.961,2.663,2.663,0,0,1-.725-2.274l1.029-6.416h14l.856-6.506a5.4,5.4,0,0,0-1.451-4.6Zm-40.519,4.6a3.54,3.54,0,0,1,1.335-2.307,3.975,3.975,0,0,1,2.6-.961,3.075,3.075,0,0,1,2.342.961,2.682,2.682,0,0,1,.738,2.307l-.427,3.238h-7.016l.427-3.238Zm34.987,0-.427,3.238h-7.016l.427-3.238a3.539,3.539,0,0,1,1.335-2.307,3.975,3.975,0,0,1,2.6-.961,3.075,3.075,0,0,1,2.342.961,2.682,2.682,0,0,1,.738,2.307Z" transform="translate(-327.533 -124.758)" fill="#fff"/><path d="M666.386,189.395H659.4l3-22.815h6.986l-.861,6.536a9.08,9.08,0,0,1,2.809-4.9,7.672,7.672,0,0,1,5.068-1.634h3.477l-.861,6.536h-6.986a3.987,3.987,0,0,0-2.6.954,3.484,3.484,0,0,0-1.333,2.284l-1.717,13.04Z" transform="translate(-493.88 -124.766)" fill="#fff"/><path d="M0,169.989,3.951,140.67H21.429l-.439,3.268H10.495L9.177,153.71h7.016l-.437,3.238H8.74L7.423,166.72H17.915l-.439,3.268Z" transform="translate(0 -105.36)" fill="#fff"/><path d="M97.572,189.395l3.075-22.815h6.986l-.439,3.268a4.581,4.581,0,0,1,1.421-2.457,3.851,3.851,0,0,1,2.528-.808h3.509a6.073,6.073,0,0,1,4.666,1.933,5.386,5.386,0,0,1,1.436,4.6L118.56,189.4h-6.986l2.194-16.278a2.677,2.677,0,0,0-.73-2.307,3.085,3.085,0,0,0-2.339-.961,4.011,4.011,0,0,0-2.606.961,3.55,3.55,0,0,0-1.343,2.307L104.556,189.4H97.57Z" transform="translate(-73.078 -124.766)" fill="#fff"/><path d="M0,29.482,3.8,0h14a6.108,6.108,0,0,1,4.676,1.935,5.427,5.427,0,0,1,1.466,4.606L23.726,8.2A6.772,6.772,0,0,1,21.4,12.714a10.04,10.04,0,0,1-5.5,2.026q3.494,0,4.985,1.973a6.026,6.026,0,0,1,1.16,4.568l-.213,1.659a7.068,7.068,0,0,1-2.666,4.6A7.859,7.859,0,0,1,14,29.482ZM7.407,26.2h3.509a3.962,3.962,0,0,0,2.593-.966,3.513,3.513,0,0,0,1.335-2.287l.424-3.286q.422-3.283-3.085-3.286H8.675L7.41,26.2ZM9.092,13.113H12.6a3.944,3.944,0,0,0,2.593-.974,3.552,3.552,0,0,0,1.338-2.312l.424-3.286a2.676,2.676,0,0,0-.746-2.3,3.11,3.11,0,0,0-2.344-.959H10.357L9.092,13.113Z" fill="#fff"/><path d="M136.023,39.166h-14l-.424,3.286a2.7,2.7,0,0,0,.73,2.287,3.07,3.07,0,0,0,2.36.966h3.507q3.475,0,3.9-3.256H135.6q-1.664,6.54-7.827,6.541h-7.016a6.129,6.129,0,0,1-4.679-1.928,5.409,5.409,0,0,1-1.463-4.614l1.265-9.827a7.081,7.081,0,0,1,2.663-4.644,7.875,7.875,0,0,1,5.166-1.928h7.016a6.1,6.1,0,0,1,4.676,1.943,5.467,5.467,0,0,1,1.463,4.629l-.841,6.541Zm-13.58-3.286h7.016l.419-3.256a2.708,2.708,0,0,0-.743-2.317,3.088,3.088,0,0,0-2.342-.966,3.972,3.972,0,0,0-2.6.966,3.543,3.543,0,0,0-1.33,2.317Z" transform="translate(-85.802 -19.511)" fill="#fff"/></svg>