<?xml version="1.0" encoding="utf-8"?>
<!-- Generator: Adobe Illustrator 26.3.1, SVG Export Plug-In . SVG Version: 6.00 Build 0)  -->
<svg version="1.1" id="レイヤー_1" xmlns="http://www.w3.org/2000/svg" xmlns:xlink="http://www.w3.org/1999/xlink" x="0px"
	 y="0px" viewBox="0 0 466 123" style="enable-background:new 0 0 466 123;" xml:space="preserve">
<style type="text/css">
	.st0{fill:#1264AF;}
	.st1{opacity:0.3;enable-background:new    ;}
	.st2{fill:#FFFFFF;}
	.st3{enable-background:new    ;}
	.st4{fill:none;}
</style>
<g transform="translate(-1439 -37)">
	<g>
		<rect x="1439" y="45" width="456" height="115"/>
	</g>
	<g transform="translate(1447 37)">
		<g>
			<rect class="st0" width="458" height="115"/>
		</g>
		<g class="st1">
			<rect class="st2" width="0.5" height="115"/>
		</g>
	</g>
	<g class="st3">
		<path class="st2" d="M1477.6,112.5c-0.6,0.6-1.2,1.1-1.8,1.6c-0.7-0.6-2.1-1.8-2.9-2.3c2.5-1.7,4.9-4.4,6.2-7.2l3.5,1
			c-0.3,0.7-0.7,1.4-1.2,2.1h18v3.1h-2.8v3.8h3.9v3.2h-3.9v3.8h3.5v3.2H1474v-3.2h3.6v-3.8h-4v-3.2h4V112.5z M1473.3,131.3
			c1.3-1.3,2.7-3.6,3.4-5.8l3.5,0.8c-0.7,2.3-2,4.7-3.4,6.3L1473.3,131.3z M1480.7,114.7h2.2v-3.8h-2.2V114.7z M1480.7,121.7h2.2
			v-3.8h-2.2V121.7z M1485.3,126.2c0.4,1.8,0.7,4.2,0.8,5.6l-3.5,0.5c0-1.4-0.2-3.9-0.6-5.7L1485.3,126.2z M1488.1,114.7v-3.8h-2.2
			v3.8H1488.1z M1485.9,117.9v3.8h2.2v-3.8H1485.9z M1491.3,126c0.7,1.8,1.5,4.1,1.7,5.6l-3.6,0.7c-0.2-1.4-0.9-3.9-1.5-5.7
			L1491.3,126z M1493.3,110.9h-2.3v3.8h2.3V110.9z M1493.3,117.9h-2.3v3.8h2.3V117.9z M1497.3,125.4c1.3,1.8,3,4.4,3.8,6l-3.7,1.2
			c-0.6-1.6-2.2-4.2-3.5-6.2L1497.3,125.4z"/>
		<path class="st2" d="M1513.2,125.9c-0.4-1-1.3-2.5-2.2-3.9v10.5h-3.3v-10.6c-1,2.8-2.2,5.6-3.5,7.4c-0.3-1.1-1.1-2.7-1.6-3.7
			c1.5-1.8,3-5,4-7.8h-3.4v-3.3h4.5v-9.8h3.3v9.8h4.4v3.3h-4.4v0.2c0.9,0.9,3.7,4.2,4.3,5.1L1513.2,125.9z M1504.5,114
			c-0.1-1.9-0.7-4.8-1.4-6.9l2.5-0.7c0.8,2.2,1.4,5,1.5,6.9L1504.5,114z M1516,106.9c-0.8,2.4-1.6,5.2-2.4,7l-2.2-0.6
			c0.6-1.9,1.3-4.9,1.7-7L1516,106.9z M1527.6,124.5v8.1h-3.4v-7.5l-8.4,1.5l-0.5-3.3l8.9-1.6v-17.1h3.4v16.5l3.1-0.6l0.5,3.3
			L1527.6,124.5z M1517.4,113.6c1.7,0.9,4,2.4,5,3.5l-1.8,2.8c-1-1.1-3.2-2.7-4.9-3.8L1517.4,113.6z M1521.7,112.5
			c-0.9-1.2-3-2.8-4.6-3.9l1.7-2.4c1.7,1,3.8,2.5,4.8,3.6L1521.7,112.5z"/>
		<path class="st2" d="M1542.1,105.7c-0.7,1.9-1.5,3.9-2.4,5.8v21h-3.4v-15.2c-0.6,0.8-1.2,1.6-1.8,2.3c-0.3-0.9-1.3-2.8-2-3.7
			c2.5-2.7,4.9-7,6.2-11.2L1542.1,105.7z M1554.2,113.3c1.6,4.6,4.4,9.3,7.3,12c-0.8,0.6-2,1.8-2.7,2.8c-0.8-0.9-1.6-2-2.4-3.2v2.6
			h-4v4.8h-3.5v-4.8h-3.9v-2.8c-0.8,1.3-1.7,2.4-2.7,3.4c-0.6-0.8-1.7-2.1-2.5-2.7c3-2.7,5.8-7.4,7.5-12.2h-5.9v-3.4h7.6v-5.2h3.5
			v5.2h8.3v3.4H1554.2z M1549,124.4v-7.6c-1,2.8-2.2,5.4-3.7,7.6H1549z M1556.1,124.4c-1.4-2.3-2.7-5-3.7-7.8v7.8H1556.1z"/>
		<path class="st2" d="M1562.7,129.9c1-1.5,1.4-4,1.5-6.6l2,0.4c-0.1,2.7-0.4,5.5-1.7,7.2L1562.7,129.9z M1585.7,124.2
			c1.2,2.4,3.1,4.4,5.6,5.5c-0.7,0.7-1.7,1.9-2.2,2.8c-2.5-1.3-4.3-3.5-5.6-6.3c-1.1,2.4-3.1,4.6-6.7,6.4c-0.4-0.6-1.1-1.5-1.7-2.1
			c-0.1,0.4-0.2,0.7-0.4,0.8c-0.5,0.7-1,1-1.8,1c-0.6,0.1-1.6,0.2-2.6,0.1c0-0.8-0.3-2-0.7-2.8c0.8,0.1,1.4,0.1,1.8,0.1
			c0.4,0,0.6-0.1,0.8-0.4c0.2-0.3,0.4-1,0.5-2.6l-1,0.4c-0.2-1.1-0.8-2.7-1.4-3.9l1.4-0.5c0.4,0.8,0.8,1.6,1,2.4
			c0.1-0.9,0.1-2,0.2-3.3h-8.6v-16.3h11v2.9h-3.2v1.6h2.6v1.6c2.7-1.6,5.3-4.7,6.5-7.2h3.1c1.8,2.8,4.4,5.5,7,6.8
			c-0.6,0.8-1.3,2.1-1.8,3.1c-0.7-0.4-1.3-0.8-1.9-1.4v1.6h-3v1.6h5.4v7.9H1585.7z M1567.9,123.8c0.3,1.7,0.4,4,0.3,5.5l-1.6,0.2
			c0.1-1.5,0-3.8-0.2-5.5L1567.9,123.8z M1567.3,108.6v1.6h2v-1.6H1567.3z M1567.3,112.9v1.8h2v-1.8H1567.3z M1567.3,119.3h2v-1.9
			h-2V119.3z M1569.9,123.5c0.5,1.6,0.9,3.5,1,4.8l-1.6,0.3c-0.1-1.3-0.5-3.3-0.9-4.9L1569.9,123.5z M1576,119.3c0,0,0,0.8,0,1.2
			c-0.2,5-0.4,7.8-0.7,9.4c3.1-1.6,4.7-3.5,5.5-5.6h-4.3v-7.9h5.1v-1.6h-3.1v-1.6c-0.8,0.6-1.5,1.2-2.3,1.7
			c-0.3-0.8-0.9-1.8-1.4-2.6v0.7h-2.6v1.8h2.6v2.7h-2.6v1.9H1576z M1581.4,121.7c0.1-0.9,0.2-1.8,0.2-2.7v-0.1h-2.2v2.8H1581.4z
			 M1586.5,112c-1.4-1.3-2.7-2.9-3.5-4.3c-0.8,1.3-2,2.9-3.3,4.3H1586.5z M1584.8,118.9v0.1c0,0.9,0,1.7-0.1,2.6h2.5v-2.8H1584.8z"
			/>
		<path class="st2" d="M1600,114.7c-1.6,1.1-3.3,2.2-5.1,3c-0.4-0.9-1.4-2.2-2.1-3c5.1-2.2,9.9-6.5,12.1-10h3.7
			c3.2,4.4,7.9,7.8,12.7,9.5c-0.9,0.9-1.7,2.2-2.3,3.3c-1.6-0.8-3.4-1.8-5-2.9v2.4h-14V114.7z M1594.7,119.4h24.8v3.3h-13.4
			c-0.9,1.8-1.9,3.6-2.8,5.3c2.9-0.1,6-0.2,9-0.3c-0.9-1.1-2-2.2-2.9-3.1l3.1-1.7c2.7,2.3,5.5,5.5,6.9,7.7l-3.3,2
			c-0.3-0.6-0.7-1.2-1.2-1.9c-7,0.4-14.5,0.7-19.6,0.9l-0.5-3.5l4.5-0.2c0.8-1.7,1.6-3.7,2.3-5.4h-7V119.4z M1612.7,113.6
			c-2.3-1.7-4.4-3.7-5.8-5.5c-1.3,1.8-3.2,3.8-5.5,5.5H1612.7z"/>
		<path class="st2" d="M1638.3,131.4l-2.2-3.6c1.1-0.1,2-0.3,2.8-0.5c3.8-0.9,6.8-3.7,6.8-8c0-4.1-2.2-7.2-6.3-7.9
			c-0.4,2.5-0.9,5.3-1.8,8.1c-1.8,6.1-4.4,9.8-7.6,9.8c-3.3,0-6.1-3.7-6.1-8.7c0-6.9,6-12.8,13.8-12.8c7.4,0,12.1,5.2,12.1,11.7
			C1649.8,125.8,1645.9,130.2,1638.3,131.4z M1630.1,124.7c1.3,0,2.4-1.9,3.7-5.9c0.7-2.2,1.3-4.8,1.6-7.3c-4.9,1-7.6,5.4-7.6,8.7
			C1627.7,123.2,1628.9,124.7,1630.1,124.7z"/>
		<path class="st2" d="M1664.3,112.4h-11.7v-2.8h11.7V112.4z M1663.2,131h-6.3v1.2h-3V122h9.3V131z M1654,113.7h9.2v2.7h-9.2V113.7z
			 M1654,117.8h9.2v2.7h-9.2V117.8z M1663.2,108.2h-9.1v-2.7h9.1V108.2z M1656.9,124.8v3.5h3.2v-3.5H1656.9z M1680.6,125.7h-6.5v6.9
			h-3.5v-6.9h-6.7v-3.2h6.7v-3h-5.1v-3.2h5.1v-2.8h-5.7v-3.2h2.7c-0.4-1.3-1.1-3.1-1.8-4.4l2.9-1.1c1,1.6,1.8,3.6,2.2,5l-1.4,0.6
			h5.8l-1.3-0.4c0.7-1.4,1.6-3.7,2.1-5.2l3.5,1c-0.8,1.7-1.7,3.4-2.5,4.7h3.2v3.2h-6.1v2.8h5.4v3.2h-5.4v3h6.5V125.7z"/>
		<path class="st2" d="M1686.7,122.6c-0.3,2.9-0.9,5.9-1.8,7.8c-0.6-0.4-2-1.1-2.7-1.3c0.8-1.7,1.3-4.4,1.5-7L1686.7,122.6z
			 M1709.7,106.8v25h-3.3v-1.3h-8.2v1.6h-3.2v-4.4l-2.8,1c-0.2-1.6-1-4-1.8-5.9l2.7-0.9c0.8,1.7,1.5,3.9,1.9,5.5v-6.8l-2.4,1.1
			c-0.1-0.6-0.3-1.2-0.6-1.9l-1.7,0.2v12.6h-3.2v-12.2c-1.5,0.1-3,0.3-4.3,0.4l-0.5-3.1c0.7,0,1.6-0.1,2.4-0.2
			c0.4-0.5,0.9-1.1,1.3-1.7c-0.9-1.3-2.4-3-3.7-4.2l1.7-2.4c0.2,0.2,0.5,0.4,0.7,0.7c0.8-1.7,1.7-3.7,2.2-5.2l3.1,1.1
			c-1,2.1-2.3,4.4-3.4,6c0.4,0.5,0.8,0.9,1.1,1.3c1.1-1.7,2-3.4,2.8-4.9l2.9,1.4c-1.6,2.5-3.6,5.3-5.5,7.7l2.8-0.2
			c-0.3-0.6-0.6-1.2-0.9-1.8l2.6-1.1c0.9,1.5,1.9,3.4,2.4,4.9v-12.2H1709.7z M1698.2,110.2v6.9h2.5v-6.9H1698.2z M1698.2,127.3h2.5
			v-7h-2.5V127.3z M1706.4,110.2h-2.6v6.9h2.6V110.2z M1706.4,127.3v-7h-2.6v7H1706.4z"/>
		<path class="st2" d="M1719.4,109.5c-0.5,2-1.4,8.6-1.4,11.6c0,0.6,0,1.4,0.1,2c0.4-1,0.9-2.1,1.4-3.1l1.8,1.5
			c-0.8,2.5-1.8,5.5-2.2,7.1c-0.1,0.4-0.2,1.1-0.2,1.4c0,0.3,0,0.8,0.1,1.2l-3.4,0.3c-0.6-2.1-1.2-5.5-1.2-9.6
			c0-4.5,0.9-10.2,1.2-12.5c0.1-0.8,0.3-2,0.3-2.9l4.1,0.4C1719.8,107.4,1719.5,109,1719.4,109.5z M1734.5,108.5
			c0,0.7-0.1,1.8-0.1,3.1c1.6-0.2,3.2-0.4,4.6-0.7v3.8c-1.4,0.2-3,0.4-4.6,0.5c0.1,2.9,0.2,5.3,0.3,7.3c2.5,1,4.4,2.5,5.8,3.9
			l-2.1,3.2c-1.3-1.2-2.5-2.2-3.7-3c-0.2,2.9-1.8,4.9-5.8,4.9c-4.1,0-6.7-1.7-6.7-4.9c0-3,2.6-5.1,6.7-5.1c0.7,0,1.3,0,2,0.1
			c-0.1-1.9-0.2-4-0.2-6.2c-0.7,0-1.4,0-2.1,0c-1.8,0-3.5-0.1-5.2-0.2v-3.6c1.7,0.2,3.5,0.3,5.2,0.3c0.7,0,1.4,0,2.1,0
			c0-1.5,0-2.7,0-3.3c0-0.5-0.1-1.4-0.2-2h4.3C1734.6,107.1,1734.6,107.8,1734.5,108.5z M1728.6,127.8c1.8,0,2.5-1,2.5-2.7
			c0-0.2,0-0.3,0-0.5c-0.8-0.2-1.6-0.3-2.4-0.3c-1.7,0-2.9,0.7-2.9,1.9C1725.8,127.3,1727,127.8,1728.6,127.8z"/>
		<path class="st2" d="M1747.6,123.9c0,1.9,1.8,3.3,6.1,3.3c4,0,7.9-0.5,10.5-1.2l0,4.2c-2.6,0.6-6.2,1-10.4,1
			c-6.9,0-10.3-2.3-10.3-6.4c0-1.7,0.4-3.2,0.6-4.3l3.9,0.4C1747.8,122,1747.6,122.9,1747.6,123.9z M1753.7,108.6
			c3,0,6.4-0.2,8.7-0.4v4c-2.1,0.2-5.8,0.4-8.7,0.4c-3.2,0-5.8-0.1-8.2-0.3v-4C1747.8,108.4,1750.6,108.6,1753.7,108.6z"/>
		<path class="st2" d="M1777.6,109.2c-0.1,0.3-0.1,0.6-0.2,0.9c3.4-0.2,7.5-0.6,11.1-1.4l0.1,3.6c-3.1,0.5-7.9,1.1-11.9,1.3
			c-0.4,1.8-0.9,3.8-1.4,5.2c2.4-1.3,4.8-1.9,7.4-1.9c4.9,0,8.1,2.6,8.1,6.4c0,6.8-6.5,9.2-16.2,8.1l-1-3.9
			c6.6,1.1,13.2,0.3,13.2-4.1c0-1.8-1.5-3.3-4.5-3.3c-3.4,0-6.5,1.2-8.3,3.5c-0.3,0.4-0.5,0.8-0.8,1.3l-3.5-1.3
			c1.4-2.8,2.6-6.8,3.4-10.1c-1.9,0-3.7-0.1-5.2-0.3v-3.7c1.8,0.3,4,0.5,5.9,0.6c0.1-0.5,0.1-0.9,0.2-1.2c0.2-1.3,0.2-2,0.1-3
			l4.3,0.2C1777.9,107.1,1777.8,108.2,1777.6,109.2z"/>
		<path class="st2" d="M1799.6,118.9c2.7-2,5.7-2.8,8.8-2.8c5.2,0,8.3,3.2,8.3,6.9c0,5.5-4.3,9.7-16.8,8.6l-1.1-3.9
			c9,1.2,13.8-1,13.8-4.8c0-1.9-1.9-3.4-4.5-3.4c-3.4,0-6.5,1.3-8.3,3.5c-0.5,0.7-0.8,1.1-1.1,1.7l-3.5-0.9
			c0.6-2.9,1.3-8.8,1.5-12.5l4,0.6C1800.4,113.5,1799.8,117.2,1799.6,118.9z M1812.6,108.2l-0.9,3.7c-3-0.4-9.7-1.8-12.1-2.4l1-3.6
			C1803.4,106.8,1810,107.9,1812.6,108.2z"/>
	</g>
	<g transform="translate(1840 95)">
		<g>
			<rect class="st4" width="44" height="44"/>
		</g>
		<g transform="translate(7.333 9.167)">
			<g>
				<path class="st2" d="M21.1,0h-8.2L22,12.8l-9.2,12.8h8.2l9.2-12.8L21.1,0z"/>
			</g>
			<g>
				<path class="st2" d="M8.2,0H0l9.2,12.8L0,25.7h8.2l9.2-12.8L8.2,0z"/>
			</g>
		</g>
	</g>
	<g class="st3">
		<path class="st2" d="M1509.1,67.2c-0.4,0.4-0.9,0.8-1.3,1.1c-0.5-0.5-1.5-1.3-2.1-1.7c1.8-1.2,3.6-3.2,4.6-5.3l2.6,0.7
			c-0.2,0.5-0.5,1-0.9,1.5h13.2V66h-2.1v2.8h2.9v2.3h-2.9v2.8h2.6v2.3h-19.1v-2.3h2.6v-2.8h-2.9v-2.3h2.9V67.2z M1505.9,80.9
			c1-0.9,2-2.6,2.5-4.2l2.5,0.6c-0.5,1.7-1.4,3.5-2.5,4.6L1505.9,80.9z M1511.4,68.8h1.6V66h-1.6V68.8z M1511.4,73.9h1.6v-2.8h-1.6
			V73.9z M1514.7,77.2c0.3,1.3,0.5,3.1,0.5,4.1l-2.6,0.4c0-1.1-0.2-2.9-0.4-4.2L1514.7,77.2z M1516.8,68.8V66h-1.6v2.8H1516.8z
			 M1515.2,71.1v2.8h1.6v-2.8H1515.2z M1519.1,77.1c0.5,1.3,1.1,3,1.3,4.1l-2.6,0.5c-0.1-1.1-0.6-2.8-1.1-4.2L1519.1,77.1z
			 M1520.6,66h-1.7v2.8h1.7V66z M1520.6,71.1h-1.7v2.8h1.7V71.1z M1523.5,76.6c1,1.3,2.2,3.2,2.8,4.4l-2.7,0.9
			c-0.5-1.2-1.6-3.1-2.6-4.5L1523.5,76.6z"/>
		<path class="st2" d="M1535.2,77c-0.3-0.7-0.9-1.8-1.6-2.9v7.7h-2.4v-7.8c-0.7,2-1.6,4.1-2.5,5.4c-0.2-0.8-0.8-2-1.2-2.7
			c1.1-1.3,2.2-3.7,2.9-5.7h-2.5v-2.4h3.3v-7.2h2.4v7.2h3.3v2.4h-3.3v0.2c0.6,0.6,2.7,3.1,3.2,3.7L1535.2,77z M1528.8,68.2
			c0-1.4-0.5-3.5-1-5.1l1.8-0.5c0.6,1.6,1,3.7,1.1,5L1528.8,68.2z M1537.3,63.1c-0.6,1.8-1.2,3.9-1.8,5.1l-1.6-0.5
			c0.4-1.4,1-3.6,1.2-5.1L1537.3,63.1z M1545.8,76v5.9h-2.5v-5.5l-6.1,1.1l-0.4-2.4l6.5-1.2V61.3h2.5v12.1l2.2-0.4l0.4,2.4
			L1545.8,76z M1538.3,68c1.3,0.7,2.9,1.7,3.7,2.5l-1.3,2.1c-0.7-0.8-2.3-2-3.6-2.8L1538.3,68z M1541.5,67.2c-0.7-0.9-2.2-2-3.4-2.9
			l1.3-1.8c1.2,0.7,2.8,1.8,3.5,2.7L1541.5,67.2z"/>
		<path class="st2" d="M1561,81l-1.7-2.6c0.8-0.1,1.5-0.2,2-0.4c2.8-0.7,5-2.7,5-5.9c0-3-1.6-5.3-4.6-5.8c-0.3,1.9-0.7,3.9-1.3,6
			c-1.3,4.4-3.2,7.2-5.6,7.2c-2.4,0-4.5-2.7-4.5-6.4c0-5.1,4.4-9.4,10.1-9.4c5.5,0,8.9,3.8,8.9,8.6C1569.4,76.9,1566.5,80.2,1561,81
			z M1554.9,76.1c0.9,0,1.8-1.4,2.7-4.4c0.5-1.6,0.9-3.5,1.2-5.3c-3.6,0.7-5.6,4-5.6,6.4C1553.2,75,1554.1,76.1,1554.9,76.1z"/>
		<path class="st2" d="M1578.1,62.2c-0.5,1.4-1.1,2.8-1.8,4.2v15.4h-2.5V70.7c-0.4,0.6-0.9,1.2-1.3,1.7c-0.2-0.6-1-2.1-1.5-2.7
			c1.8-2,3.6-5.1,4.6-8.2L1578.1,62.2z M1587,67.8c1.2,3.4,3.2,6.8,5.4,8.8c-0.6,0.5-1.5,1.3-2,2c-0.6-0.7-1.2-1.5-1.8-2.3v1.9h-2.9
			v3.5h-2.6v-3.5h-2.9v-2c-0.6,0.9-1.3,1.8-2,2.5c-0.4-0.6-1.3-1.5-1.9-2c2.2-2,4.3-5.5,5.5-8.9h-4.3v-2.5h5.6v-3.8h2.6v3.8h6.1v2.5
			H1587z M1583.1,75.9v-5.6c-0.7,2-1.6,4-2.7,5.6H1583.1z M1588.4,75.9c-1-1.7-2-3.7-2.7-5.7v5.7H1588.4z"/>
		<path class="st2" d="M1593.2,80c0.7-1.1,1-3,1.1-4.8l1.5,0.3c-0.1,2-0.3,4-1.2,5.3L1593.2,80z M1610.1,75.8c0.9,1.8,2.3,3.3,4.1,4
			c-0.5,0.5-1.3,1.4-1.7,2.1c-1.8-0.9-3.2-2.6-4.1-4.6c-0.8,1.8-2.3,3.4-4.9,4.7c-0.3-0.4-0.8-1.1-1.3-1.5c-0.1,0.3-0.2,0.5-0.3,0.6
			c-0.4,0.5-0.8,0.7-1.3,0.8c-0.4,0.1-1.1,0.1-1.9,0.1c0-0.6-0.2-1.5-0.5-2c0.6,0.1,1.1,0.1,1.3,0.1c0.3,0,0.4-0.1,0.6-0.3
			c0.2-0.2,0.3-0.8,0.4-1.9l-0.7,0.3c-0.1-0.8-0.6-2-1-2.8l1-0.4c0.3,0.5,0.6,1.2,0.7,1.8c0-0.7,0.1-1.5,0.1-2.4h-6.3v-12h8.1v2.1
			h-2.4v1.2h1.9v1.2c2-1.2,3.9-3.5,4.8-5.3h2.2c1.3,2,3.2,4,5.2,5c-0.5,0.6-1,1.6-1.3,2.2c-0.5-0.3-1-0.6-1.4-1v1.2h-2.2V70h3.9v5.8
			H1610.1z M1597,75.5c0.2,1.3,0.3,3,0.2,4l-1.2,0.2c0.1-1.1,0-2.8-0.2-4.1L1597,75.5z M1596.6,64.3v1.2h1.5v-1.2H1596.6z
			 M1596.6,67.5v1.3h1.5v-1.3H1596.6z M1596.6,72.1h1.5v-1.4h-1.5V72.1z M1598.5,75.2c0.4,1.1,0.7,2.6,0.7,3.5l-1.1,0.2
			c0-0.9-0.3-2.4-0.7-3.6L1598.5,75.2z M1603,72.1c0,0,0,0.6,0,0.9c-0.2,3.6-0.3,5.7-0.5,6.9c2.3-1.1,3.5-2.6,4-4.1h-3.1V70h3.7
			v-1.2h-2.2v-1.2c-0.5,0.5-1.1,0.9-1.7,1.3c-0.2-0.6-0.7-1.3-1-1.9v0.5h-1.9v1.3h1.9v2h-1.9v1.4H1603z M1607,73.9
			c0.1-0.7,0.1-1.3,0.1-2v-0.1h-1.6v2H1607z M1610.7,66.8c-1-1-2-2.1-2.6-3.1c-0.6,1-1.4,2.1-2.4,3.1H1610.7z M1609.4,71.9
			L1609.4,71.9c0,0.7,0,1.4-0.1,2h1.8v-2H1609.4z"/>
		<path class="st2" d="M1620.6,68.8c-1.2,0.8-2.4,1.6-3.7,2.2c-0.3-0.6-1-1.6-1.5-2.2c3.7-1.7,7.2-4.8,8.9-7.4h2.7
			c2.3,3.2,5.8,5.7,9.3,7c-0.7,0.7-1.2,1.6-1.7,2.4c-1.2-0.6-2.5-1.3-3.7-2.1v1.7h-10.3V68.8z M1616.7,72.2h18.2v2.4h-9.9
			c-0.6,1.3-1.4,2.7-2,3.9c2.1-0.1,4.4-0.2,6.6-0.2c-0.7-0.8-1.4-1.6-2.2-2.2l2.3-1.2c2,1.7,4,4,5,5.7l-2.4,1.5
			c-0.2-0.4-0.5-0.9-0.9-1.4c-5.2,0.3-10.6,0.5-14.3,0.7l-0.4-2.6l3.3-0.1c0.6-1.2,1.2-2.7,1.7-4h-5.1V72.2z M1629.9,68
			c-1.7-1.3-3.2-2.7-4.2-4.1c-0.9,1.3-2.4,2.8-4,4.1H1629.9z"/>
		<path class="st2" d="M1644.3,71.6c0,1.2-1,2.1-2.1,2.1c-1.2,0-2.2-0.9-2.2-2.1s1-2.1,2.2-2.1C1643.4,69.5,1644.3,70.5,1644.3,71.6
			z"/>
		<path class="st2" d="M1656.6,67.2h-8.2v-2.1h8.2V67.2z M1666.6,79.4c0.4,0,0.4-0.4,0.5-3.1c0.5,0.4,1.5,0.8,2.2,1
			c-0.2,3.5-0.8,4.4-2.4,4.4h-1.4c-1.9,0-2.4-0.8-2.4-3V73h-1.1c-0.3,3.7-1,7-4.5,9c-0.3-0.6-0.9-1.4-1.5-1.9v1h-4.4v0.9h-2.2v-7.5
			h6.6v5.4c2.7-1.5,3.2-4,3.4-6.8h-2v-7.7h1.7c-0.3-0.9-0.9-2.2-1.4-3.1l2.3-0.7c0.7,1.1,1.4,2.5,1.7,3.5l-1.1,0.4h4.6l-1.2-0.4
			c0.5-1,1-2.6,1.3-3.7l2.7,0.7c-0.5,1.2-1.1,2.4-1.6,3.3h1.9V73h-2.7v5.7c0,0.6,0,0.7,0.3,0.7H1666.6z M1655.8,70.2h-6.3v-2h6.3
			V70.2z M1649.5,71.3h6.3v2h-6.3V71.3z M1655.8,64h-6.2v-2h6.2V64z M1653.7,76.5h-2.1V79h2.1V76.5z M1665.6,67.6h-5.7v3.2h5.7V67.6
			z"/>
		<path class="st2" d="M1673.7,76v1.9h-2.4V62.6h7.7V76H1673.7z M1673.7,64.9V68h2.8v-3.1H1673.7z M1676.5,73.6v-3.3h-2.8v3.3
			H1676.5z M1690.4,78.9c0,1.4-0.3,2.1-1.1,2.5c-0.9,0.4-2.1,0.5-4,0.5c-0.1-0.7-0.5-1.9-0.9-2.5c1.2,0.1,2.5,0,2.9,0
			c0.4,0,0.5-0.1,0.5-0.5V75h-5.2c-0.5,2.6-1.7,5.3-4.2,7.1c-0.4-0.5-1.4-1.4-2-1.7c3.7-2.7,4-6.8,4-10.2v-7.9h9.9V78.9z
			 M1687.8,72.7v-2.8h-4.7v0.3c0,0.8,0,1.6-0.1,2.5H1687.8z M1683,64.7v2.8h4.7v-2.8H1683z"/>
		<path class="st2" d="M1697.6,68.8c-1.2,0.8-2.4,1.6-3.7,2.2c-0.3-0.6-1-1.6-1.5-2.2c3.7-1.7,7.2-4.8,8.9-7.4h2.7
			c2.3,3.2,5.8,5.7,9.3,7c-0.7,0.7-1.2,1.6-1.7,2.4c-1.2-0.6-2.5-1.3-3.7-2.1v1.7h-10.3V68.8z M1693.7,72.2h18.2v2.4h-9.9
			c-0.6,1.3-1.4,2.7-2,3.9c2.1-0.1,4.4-0.2,6.6-0.2c-0.7-0.8-1.4-1.6-2.2-2.2l2.3-1.2c2,1.7,4,4,5,5.7l-2.4,1.5
			c-0.2-0.4-0.5-0.9-0.9-1.4c-5.2,0.3-10.6,0.5-14.3,0.7l-0.4-2.6l3.3-0.1c0.6-1.2,1.2-2.7,1.7-4h-5.1V72.2z M1706.9,68
			c-1.7-1.3-3.2-2.7-4.2-4.1c-0.9,1.3-2.4,2.8-4,4.1H1706.9z"/>
		<path class="st2" d="M1723.6,64.6c2.1-0.1,4.3-0.3,6.2-0.6l0,2.6c-2.1,0.3-4.8,0.5-7.2,0.6c-0.4,0.8-0.8,1.6-1.3,2.2
			c0.6-0.3,1.8-0.4,2.5-0.4c1.3,0,2.4,0.6,2.9,1.7c1.1-0.5,2.1-0.9,3-1.3c0.9-0.4,1.6-0.7,2.4-1.1l1.1,2.6c-0.7,0.2-1.9,0.6-2.6,0.9
			c-1,0.4-2.2,0.9-3.6,1.5c0,1.2,0.1,2.9,0.1,3.9h-2.6c0.1-0.7,0.1-1.7,0.1-2.7c-1.7,0.9-2.5,1.8-2.5,2.9c0,1.2,1,1.5,3.2,1.5
			c1.9,0,4.3-0.2,6.2-0.6l-0.1,2.8c-1.5,0.2-4.2,0.4-6.2,0.4c-3.5,0-6-0.8-6-3.7c0-2.8,2.6-4.6,5.1-5.9c-0.3-0.5-0.9-0.7-1.5-0.7
			c-1.2,0-2.6,0.7-3.4,1.5c-0.7,0.7-1.3,1.5-2,2.4l-2.4-1.8c2.3-2.1,3.9-4.1,4.9-6.1c-0.1,0-0.2,0-0.3,0c-0.9,0-2.5,0-3.7-0.1v-2.6
			c1.1,0.2,2.8,0.3,3.9,0.3c0.3,0,0.7,0,1.1,0c0.2-0.9,0.4-1.7,0.4-2.5l2.9,0.2C1724.1,62.9,1723.9,63.6,1723.6,64.6z"/>
		<path class="st2" d="M1746,77c0.7,1.4,2,2.2,3.7,2.3c1.6,0.1,4.7,0,6.5-0.1c-0.3,0.6-0.6,1.7-0.7,2.3c-1.7,0.1-4.4,0.1-6,0
			c-2.1-0.1-3.5-0.9-4.6-2.6c-0.7,0.9-1.6,1.8-2.5,2.8l-1.2-2.3c0.8-0.6,1.7-1.5,2.6-2.3v-5h-1.5c0.2,0.7,0.2,1.4,0.2,2
			c0,1.4-0.3,2.4-0.9,2.9c-0.3,0.2-0.7,0.4-1.2,0.5c-0.3,0-0.7,0-1.2,0c0-0.6-0.2-1.6-0.5-2.2c0.3,0,0.5,0,0.8,0
			c0.2,0,0.4-0.1,0.5-0.2c0.2-0.2,0.3-0.7,0.3-1.4c0-1.1-0.2-2.6-1.3-4.2c0.4-1.4,0.8-3.4,1.1-5h-1.5v17.3h-2.3V62.3h4.5l0.3-0.1
			l1.6,1l0,0.1l1.5-0.7c0.9,1.3,1.7,2.9,2,4.1l-2.1,1c-0.2-1-0.8-2.4-1.5-3.7c-0.5,1.8-1,3.8-1.5,5.3c0.6,1,1,1.9,1.2,2.7v-2.1h3.8
			V77z M1748,70.1c-0.3,0.4-0.7,0.7-1,1c-0.3-0.4-1.2-1.3-1.7-1.8c1.1-0.9,2.1-2.2,2.8-3.6h-2v-2.2h2.9c0.2-0.7,0.4-1.5,0.6-2.2
			l2.3,0.4c-0.1,0.6-0.3,1.2-0.5,1.8h4.6v2.2h-5.4c-0.2,0.5-0.4,0.9-0.6,1.3h5.3v9.1c0,0.9-0.1,1.5-0.7,1.8
			c-0.6,0.3-1.4,0.4-2.4,0.4c-0.1-0.6-0.4-1.4-0.6-1.9c0.5,0,1,0,1.2,0c0.2,0,0.2-0.1,0.2-0.3V75h-2.8v3.3h-2.2V70.1z M1750.2,69
			v1.2h2.8V69H1750.2z M1753,73.2V72h-2.8v1.2H1753z"/>
		<path class="st2" d="M1765.1,77.7h-4.5v1.9h-2.4V62.7h6.9V77.7z M1760.6,65v3.9h2V65H1760.6z M1762.7,75.3v-4.1h-2v4.1H1762.7z
			 M1775.8,70.2v1.9h2.1v2.3h-2.1v4.8c0,1.3-0.2,1.9-1.1,2.3c-0.9,0.4-2,0.4-3.7,0.4c-0.1-0.7-0.5-1.8-0.8-2.5c1.1,0,2.3,0,2.6,0
			c0.4,0,0.5-0.1,0.5-0.4v-4.7h-7.7v-2.3h7.7v-1.9h-7.8v-2.3h5V66h-4.2v-2.3h4.2v-2.3h2.6v2.3h4.4V66h-4.4v1.9h5v2.3H1775.8z
			 M1768.5,74.6c1,1.1,2.2,2.5,2.7,3.6l-2.2,1.3c-0.4-1-1.5-2.6-2.5-3.7L1768.5,74.6z"/>
		<path class="st2" d="M1783.1,70v11.9h-2.6V62.2h8.5V70H1783.1z M1783.1,64.1v1.1h3.5v-1.1H1783.1z M1786.6,68.1v-1.2h-3.5v1.2
			H1786.6z M1793,77v4.5h-2.3V77h-2.1c-0.2,1.5-0.9,3.7-2.8,4.9c-0.4-0.5-1.2-1.1-1.7-1.5c1.4-0.9,2-2.3,2.2-3.4h-2.2v-2.1h2.3v-1.7
			h-2v-2.1h10.6v2.1h-2.1v1.7h2.4V77H1793z M1790.7,74.8v-1.7h-2v1.7H1790.7z M1799.1,78.9c0,1.3-0.2,2.1-1,2.5
			c-0.8,0.4-1.9,0.5-3.6,0.5c-0.1-0.7-0.4-1.9-0.8-2.6c1,0,2.1,0,2.4,0c0.4,0,0.5-0.1,0.5-0.4V70h-6.1v-7.8h8.6V78.9z M1793,64.1
			v1.1h3.6v-1.1H1793z M1796.5,68.1v-1.2h-3.6v1.2H1796.5z"/>
		<path class="st2" d="M1822,81.1h-10v0.8h-2.5V73c-0.4,0.5-0.8,0.9-1.2,1.3c-0.4-0.5-1.3-1.3-1.8-1.8v9.4h-2.5V70.6
			c-0.5,0.6-1,1.2-1.5,1.8c-0.2-0.6-0.9-2.1-1.4-2.7c2-2,3.9-5.1,5-8.3l2.5,0.8c-0.6,1.5-1.3,3.1-2.1,4.5v5.6c1.6-1.3,3.1-3.3,4-5.4
			h-1.5v-4.8h2.4v2.6h2.5v-3.3h2.6v3.3h2.7v-2.6h2.5V67h-5.7l2.5,0.6l-0.8,1.6h4.2v2h-4.5v1.3h3.9v1.9h-3.9v1.4h3.9v1.9h-3.9V79h4.7
			V81.1z M1812.9,67.5c-0.2,0.5-0.5,1.1-0.8,1.6h2.8c0.3-0.7,0.5-1.5,0.6-2.2h-4.5L1812.9,67.5z M1814.8,71.1h-2.8v1.3h2.8V71.1z
			 M1814.8,74.4h-2.8v1.4h2.8V74.4z M1812,79h2.8v-1.4h-2.8V79z"/>
		<path class="st2" d="M1842.9,65.2v11h-2.8V75h-5v6.9h-2.8V75h-5v1.2h-2.6V65.2h7.6v-3.8h2.8v3.8H1842.9z M1832.4,72.5v-4.7h-5v4.7
			H1832.4z M1840.1,72.5v-4.7h-5v4.7H1840.1z"/>
	</g>
</g>
</svg>
