<?xml version="1.0" encoding="utf-8"?>
<!-- Generator: Adobe Illustrator 26.3.1, SVG Export Plug-In . SVG Version: 6.00 Build 0)  -->
<svg version="1.1" id="レイヤー_1" xmlns="http://www.w3.org/2000/svg" xmlns:xlink="http://www.w3.org/1999/xlink" x="0px"
	 y="0px" viewBox="0 0 404 123" style="enable-background:new 0 0 404 123;" xml:space="preserve">
<style type="text/css">
	.st0{fill:#7EEE3E;}
	.st1{opacity:0.3;enable-background:new    ;}
	.st2{fill:#FFFFFF;}
	.st3{enable-background:new    ;}
	.st4{fill:none;}
</style>
<g transform="translate(-1499 -37)">
	<g>
		<rect x="1499" y="45" width="396" height="115"/>
	</g>
	<g transform="translate(1507 37)">
		<g>
			<rect class="st0" width="396" height="115"/>
		</g>
		<g class="st1">
			<rect class="st2" width="0.5" height="115"/>
		</g>
	</g>
	<g transform="translate(16 -7)">
		<g class="st3">
			<path d="M1523.6,113.9h15.1c0.9,0,2.1,0,2.6-0.1c0,0.7-0.1,1.9-0.1,2.8v15.5c0,1,0.1,2.6,0.1,3.5h-4.3c0-0.5,0-1,0-1.6h-13.7
				c-1.2,0-2.9,0.1-3.9,0.2V130c1,0.1,2.4,0.2,3.8,0.2h13.8v-12.4h-13.5c-1.3,0-2.9,0.1-3.7,0.1v-4.2
				C1521,113.8,1522.6,113.9,1523.6,113.9z"/>
			<path d="M1552.5,121.3h16.1c1.4,0,2.7-0.1,3.5-0.2v4.7c-0.7,0-2.2-0.2-3.5-0.2h-16.1c-1.7,0-3.7,0.1-4.8,0.2v-4.7
				C1548.8,121.2,1551,121.3,1552.5,121.3z"/>
			<path d="M1595.6,116.5c-1,2.3-2.7,5.5-4.7,8.2c3,2.6,6.6,6.4,8.4,8.6l-3.4,3c-1.9-2.7-4.7-5.8-7.6-8.5c-3.2,3.4-7.2,6.5-11.3,8.4
				l-3.1-3.2c4.8-1.8,9.5-5.5,12.3-8.6c2-2.2,3.8-5.2,4.5-7.3h-10.2c-1.3,0-2.9,0.2-3.5,0.2V113c0.8,0.1,2.6,0.2,3.5,0.2h10.6
				c1.3,0,2.5-0.2,3.1-0.4l2.5,1.8C1596.4,115,1595.9,115.9,1595.6,116.5z"/>
			<path d="M1617.5,136.4l-2.2-3.6c1.1-0.1,2-0.3,2.8-0.5c3.8-0.9,6.8-3.7,6.8-8c0-4.1-2.2-7.2-6.3-7.9c-0.4,2.5-0.9,5.3-1.8,8.1
				c-1.8,6.1-4.4,9.8-7.6,9.8c-3.3,0-6.1-3.7-6.1-8.7c0-6.9,6-12.8,13.8-12.8c7.4,0,12.1,5.2,12.1,11.7
				C1628.9,130.8,1625.1,135.2,1617.5,136.4z M1609.2,129.7c1.3,0,2.4-1.9,3.7-5.9c0.7-2.2,1.3-4.8,1.6-7.3c-4.9,1-7.6,5.4-7.6,8.7
				C1606.9,128.2,1608.1,129.7,1609.2,129.7z"/>
			<path d="M1643.4,117.4h-11.7v-2.8h11.7V117.4z M1642.3,136h-6.3v1.2h-3V127h9.3V136z M1633.1,118.7h9.2v2.7h-9.2V118.7z
				 M1633.1,122.8h9.2v2.7h-9.2V122.8z M1642.3,113.2h-9.1v-2.7h9.1V113.2z M1636.1,129.8v3.5h3.2v-3.5H1636.1z M1659.8,130.7h-6.5
				v6.9h-3.5v-6.9h-6.7v-3.2h6.7v-3h-5.1v-3.2h5.1v-2.8h-5.7v-3.2h2.7c-0.4-1.3-1.1-3.1-1.8-4.4l2.9-1.1c1,1.6,1.8,3.6,2.2,5
				l-1.4,0.6h5.9l-1.4-0.4c0.7-1.4,1.6-3.7,2.1-5.2l3.5,1c-0.8,1.7-1.7,3.4-2.5,4.7h3.2v3.2h-6.1v2.8h5.4v3.2h-5.4v3h6.5V130.7z"/>
			<path d="M1665.8,127.6c-0.3,2.9-0.9,5.9-1.8,7.8c-0.6-0.4-1.9-1.1-2.7-1.3c0.8-1.7,1.3-4.4,1.5-7L1665.8,127.6z M1688.8,111.8v25
				h-3.3v-1.3h-8.2v1.6h-3.1v-4.4l-2.8,1c-0.2-1.6-1-4-1.8-5.9l2.7-0.9c0.8,1.7,1.5,3.9,1.9,5.5v-6.8l-2.4,1.1
				c-0.1-0.6-0.3-1.2-0.6-1.9l-1.7,0.2v12.6h-3.2v-12.2c-1.5,0.1-3,0.3-4.3,0.4l-0.5-3.1c0.7,0,1.6-0.1,2.4-0.2
				c0.4-0.5,0.9-1.1,1.3-1.7c-0.9-1.3-2.4-3-3.7-4.2l1.7-2.4c0.2,0.2,0.5,0.4,0.7,0.7c0.8-1.7,1.7-3.7,2.2-5.2l3.1,1.1
				c-1,2.1-2.3,4.4-3.4,6c0.4,0.5,0.8,0.9,1.1,1.3c1-1.7,2-3.4,2.8-4.9l2.9,1.4c-1.6,2.5-3.6,5.3-5.5,7.7l2.8-0.2
				c-0.3-0.6-0.6-1.2-0.9-1.8l2.6-1.1c0.9,1.5,1.9,3.4,2.4,4.9v-12.2H1688.8z M1677.3,115.2v6.9h2.5v-6.9H1677.3z M1677.3,132.3h2.5
				v-7h-2.5V132.3z M1685.5,115.2h-2.6v6.9h2.6V115.2z M1685.5,132.3v-7h-2.6v7H1685.5z"/>
			<path d="M1698.5,114.5c-0.5,2-1.4,8.6-1.4,11.6c0,0.6,0,1.4,0.1,2c0.4-1,0.9-2.1,1.3-3.1l1.8,1.5c-0.8,2.5-1.8,5.5-2.2,7.1
				c-0.1,0.4-0.1,1.1-0.1,1.4c0,0.3,0,0.8,0.1,1.2l-3.4,0.3c-0.6-2.1-1.2-5.5-1.2-9.6c0-4.5,0.9-10.2,1.2-12.5
				c0.1-0.8,0.3-2,0.3-2.9l4.1,0.4C1699,112.4,1698.6,114,1698.5,114.5z M1713.7,113.5c0,0.7-0.1,1.8-0.1,3.1
				c1.7-0.2,3.2-0.4,4.7-0.7v3.8c-1.4,0.2-3,0.4-4.7,0.5c0.1,2.9,0.2,5.3,0.3,7.3c2.5,1,4.4,2.5,5.8,3.9l-2.1,3.2
				c-1.3-1.2-2.5-2.2-3.7-3c-0.2,2.9-1.8,4.9-5.9,4.9c-4.1,0-6.7-1.7-6.7-4.9c0-3,2.6-5.1,6.7-5.1c0.7,0,1.4,0,2,0.1
				c-0.1-1.9-0.2-4-0.2-6.2c-0.7,0-1.4,0-2.1,0c-1.8,0-3.5-0.1-5.2-0.2v-3.6c1.7,0.2,3.4,0.3,5.2,0.3c0.7,0,1.4,0,2.1,0
				c0-1.5,0-2.7,0-3.3c0-0.5-0.1-1.4-0.2-2h4.3C1713.8,112.1,1713.7,112.8,1713.7,113.5z M1707.7,132.8c1.8,0,2.5-1,2.5-2.7
				c0-0.2,0-0.3,0-0.5c-0.8-0.2-1.6-0.3-2.4-0.3c-1.7,0-2.8,0.7-2.8,1.9C1704.9,132.3,1706.1,132.8,1707.7,132.8z"/>
			<path d="M1726.7,128.9c0,1.9,1.8,3.3,6.2,3.3c4,0,7.9-0.5,10.5-1.2l0,4.2c-2.6,0.6-6.2,1-10.4,1c-6.9,0-10.3-2.3-10.3-6.4
				c0-1.7,0.4-3.2,0.6-4.3l3.9,0.4C1726.9,127,1726.7,127.9,1726.7,128.9z M1732.8,113.6c3,0,6.4-0.2,8.7-0.4v4
				c-2.1,0.2-5.8,0.4-8.7,0.4c-3.1,0-5.8-0.1-8.2-0.3v-4C1726.9,113.4,1729.7,113.6,1732.8,113.6z"/>
			<path d="M1756.7,114.2c-0.1,0.3-0.1,0.6-0.2,0.9c3.4-0.2,7.5-0.6,11.1-1.4l0.1,3.6c-3.1,0.5-7.9,1.1-11.9,1.3
				c-0.4,1.8-0.9,3.8-1.3,5.2c2.4-1.3,4.8-1.9,7.4-1.9c4.9,0,8.1,2.6,8.1,6.4c0,6.8-6.5,9.2-16.2,8.1l-1-3.9
				c6.6,1.1,13.2,0.3,13.2-4.1c0-1.8-1.5-3.3-4.5-3.3c-3.5,0-6.5,1.2-8.3,3.5c-0.3,0.4-0.5,0.8-0.8,1.3l-3.5-1.3
				c1.4-2.8,2.6-6.8,3.4-10.1c-1.9,0-3.7-0.1-5.2-0.3v-3.7c1.8,0.3,4,0.5,5.9,0.6c0.1-0.5,0.1-0.9,0.2-1.2c0.2-1.3,0.2-2,0.2-3
				l4.3,0.2C1757.1,112.1,1756.9,113.2,1756.7,114.2z"/>
			<path d="M1778.7,123.9c2.7-2,5.7-2.8,8.8-2.8c5.2,0,8.3,3.2,8.3,6.9c0,5.5-4.3,9.7-16.8,8.6l-1.1-3.9c9,1.2,13.8-1,13.8-4.8
				c0-1.9-1.9-3.4-4.5-3.4c-3.4,0-6.4,1.3-8.3,3.5c-0.5,0.7-0.8,1.1-1.1,1.7l-3.5-0.9c0.6-2.9,1.3-8.8,1.5-12.5l4,0.6
				C1779.5,118.5,1779,122.2,1778.7,123.9z M1791.7,113.2l-0.9,3.7c-3-0.4-9.7-1.8-12.1-2.4l1-3.6
				C1782.6,111.8,1789.1,112.9,1791.7,113.2z"/>
		</g>
		<g transform="translate(1819 100)">
			<g>
				<rect class="st4" width="44" height="44"/>
			</g>
			<g transform="translate(7.333 9.167)">
				<g>
					<path d="M21.1,0h-8.2L22,12.8l-9.2,12.8h8.2l9.2-12.8L21.1,0z"/>
				</g>
				<g>
					<path d="M8.2,0H0l9.2,12.8L0,25.7h8.2l9.2-12.8L8.2,0z"/>
				</g>
			</g>
		</g>
		<g>
			<rect x="1676" y="79" class="st2" width="114" height="13"/>
		</g>
		<g class="st3">
			<path d="M1599.5,69.5c0,0.2-0.1,0.5-0.2,0.8c1.2-0.2,2.5-0.4,3.7-0.7v2.8c-1.3,0.3-2.8,0.5-4.3,0.7c-0.2,0.9-0.4,1.9-0.7,2.8
				c-0.8,3.1-2.3,7.6-3.5,10.2l-3.1-1c1.3-2.2,3-6.8,3.8-9.9c0.2-0.6,0.3-1.2,0.5-1.8c-0.5,0-1,0-1.5,0c-1.1,0-1.9,0-2.7-0.1
				l-0.1-2.8c1.1,0.1,1.9,0.2,2.8,0.2c0.6,0,1.3,0,2-0.1c0.1-0.5,0.2-0.9,0.2-1.3c0.1-0.8,0.1-1.7,0.1-2.2l3.4,0.3
				C1599.8,68,1599.6,69,1599.5,69.5z M1602.1,81.5c0,1,0.7,1.7,3,1.7c1.5,0,3-0.2,4.6-0.5l-0.1,2.8c-1.2,0.2-2.7,0.3-4.5,0.3
				c-3.7,0-5.7-1.3-5.7-3.5c0-1,0.2-2.1,0.4-2.9l2.6,0.3C1602.3,80.2,1602.1,81,1602.1,81.5z M1605.5,73.9c1.3,0,2.6,0.1,3.9,0.2
				l-0.1,2.6c-1.1-0.1-2.4-0.3-3.8-0.3c-1.5,0-2.9,0.1-4.2,0.2v-2.6C1602.5,74,1604.1,73.9,1605.5,73.9z"/>
			<path d="M1620.5,69.8c0,0.2-0.1,0.5-0.2,0.8c1.2-0.2,2.5-0.4,3.7-0.7v2.8c-1.3,0.3-2.8,0.6-4.3,0.7c-0.2,0.9-0.4,1.9-0.7,2.8
				c-0.8,3.1-2.3,7.6-3.5,10.2l-3.1-1c1.3-2.2,3-6.8,3.8-9.9c0.2-0.6,0.3-1.2,0.5-1.8c-0.5,0-1,0-1.5,0c-1.1,0-1.9,0-2.7-0.1
				l-0.1-2.8c1.1,0.1,1.8,0.2,2.8,0.2c0.6,0,1.3,0,2-0.1c0.1-0.5,0.2-0.9,0.2-1.3c0.1-0.8,0.1-1.7,0.1-2.2l3.4,0.3
				C1620.8,68.3,1620.6,69.3,1620.5,69.8z M1623.2,81.7c0,1,0.7,1.7,3,1.7c1.5,0,3-0.2,4.6-0.4l-0.1,2.8c-1.3,0.2-2.7,0.3-4.5,0.3
				c-3.7,0-5.7-1.3-5.7-3.5c0-1,0.2-2.1,0.4-2.9l2.6,0.2C1623.3,80.5,1623.2,81.2,1623.2,81.7z M1626.5,74.1c1.3,0,2.6,0.1,3.9,0.2
				l-0.1,2.6c-1.1-0.1-2.4-0.3-3.8-0.3c-1.5,0-2.9,0.1-4.2,0.2v-2.6C1623.5,74.2,1625.1,74.1,1626.5,74.1z M1629.8,71.3l-1.8,0.8
				c-0.4-0.9-1.1-2.2-1.7-3.1l1.7-0.7C1628.6,69.1,1629.4,70.5,1629.8,71.3z M1632.4,70.3l-1.7,0.7c-0.5-0.9-1.2-2.2-1.8-3l1.7-0.7
				C1631.2,68.1,1632,69.6,1632.4,70.3z"/>
			<path d="M1644.3,66.2c2.4,3.4,6,6.5,9.4,8.1c-0.7,0.7-1.2,1.5-1.7,2.3c-1.4-0.8-2.8-1.8-4.2-2.9v1.8h-9.3v-1.8
				c-1.3,1.1-2.6,2.1-4.1,2.9c-0.3-0.6-1.1-1.5-1.6-2.1c3.7-2,7.3-5.6,8.9-8.3H1644.3z M1648.5,77.5l2.1,0.6c-1.1,2.7-2.7,6.1-4,8.9
				l-2.8-0.8c1-1.9,2.1-4.2,2.9-6.2h-11.3v-2.5h12.6L1648.5,77.5z M1647.1,73.1c-1.6-1.4-3-2.9-4-4.3c-0.9,1.4-2.3,2.9-3.9,4.3
				H1647.1z"/>
			<path d="M1655,81.7l2.3-2c1.6,1.3,3.7,3.5,4.8,4.8l-2.4,2C1658.4,84.9,1656.5,83,1655,81.7z"/>
			<path d="M1686.3,82.2h-8.8v4.7h-2.7v-4.7h-8.6v-2.5h8.6v-2.5h-6.4v-9.9h15.6v9.9h-6.5v2.5h8.8V82.2z M1670.9,71.2h10.4v-1.6
				h-10.4V71.2z M1670.9,74.9h10.4v-1.6h-10.4V74.9z"/>
			<path d="M1695.1,68.3h4.6v3.8h-1.1v1.7h-3.5v0.9h3.2v1.7h-3.2v0.9h4.4v2h-11.3v-2h4.5v-0.9h-3.3v-1.7h3.3v-0.9h-3.5v-1.7h-1.1
				v-3.8h4.5v-1.8h2.5V68.3z M1689.3,80.1h9.2v6.6h-2.5v-0.8h-4.4v1h-2.4V80.1z M1697.3,70.3h-6.9v1.6h2.2v-1.2h2.4v1.2h2.2V70.3z
				 M1691.7,82.1V84h4.4v-1.9H1691.7z M1703.1,81h-2.5V68.7h2.5V81z M1707.7,66.8v17c0,1.5-0.3,2.2-1.1,2.6c-0.9,0.4-2.2,0.5-4,0.5
				c-0.1-0.7-0.5-2-0.9-2.7c1.3,0.1,2.5,0,3,0c0.4,0,0.5-0.1,0.5-0.5V66.8H1707.7z"/>
			<path d="M1722.6,81.5c1.6,1.8,4,2.8,7.5,3.1c-0.5,0.5-1.2,1.6-1.5,2.3c-4.2-0.7-6.8-2.2-8.5-5c-1.3,2-3.7,3.7-8.2,4.9
				c-0.3-0.6-1.1-1.6-1.6-2.1c3.7-0.8,5.8-2,7-3.3h-6.6v-2.3h7.9c0.1-0.5,0.2-0.9,0.2-1.4h-5.6v-2.1h5.7v-1.3h-6V73h-2v-4.7h8v-1.9
				h2.7v1.9h8.1V73h-1.8v1.5h-6.4v1.3h6v2.1h-6c0,0.5-0.1,0.9-0.2,1.4h8.7v2.3H1722.6z M1718.7,72.3v-1.3h2.6v1.3h5.5v-1.7h-13.5
				v1.7H1718.7z"/>
			<path d="M1749.2,84.7c0.9,0,1-0.4,1.2-2.3c0.5,0.4,1.5,0.7,2.1,0.9c-0.3,2.8-0.9,3.6-3.1,3.6h-3.9c-2.6,0-3.3-0.7-3.3-3.2v-4.2
				l-0.9,0.4l-0.9-2.1c-0.1,5.4-0.2,7.5-0.7,8.2c-0.4,0.6-0.8,0.8-1.4,0.9c-0.5,0.1-1.4,0.1-2.3,0.1c0-0.7-0.3-1.7-0.6-2.3
				c0.7,0.1,1.3,0.1,1.6,0.1c0.3,0,0.5-0.1,0.6-0.4c0.3-0.4,0.4-2.3,0.5-7.5h-1.7c-0.3,4-1,7.5-2.8,10c-0.4-0.6-1.2-1.4-1.9-1.8
				c2.2-3,2.4-7.9,2.4-12.9h-2.1v-2.4h3.4v-3.3h2.5v3.3h3.4v1.7c0.9-1.4,1.6-3.2,2-5l2.6,0.5c-0.2,0.8-0.4,1.5-0.7,2.3h6.9v2.4h-7.9
				c-0.4,0.8-0.8,1.5-1.3,2.1h1.6v2.1l1.2-0.5v-3.1h2.2v2.1l1.6-0.7l0.1-0.1l0.4-0.3l1.6,0.6l-0.1,0.4c0,3.1,0,5.4-0.1,6
				c0,0.8-0.4,1.3-0.9,1.5c-0.5,0.2-1.2,0.2-1.8,0.2c0-0.6-0.2-1.4-0.5-1.9c0.3,0,0.6,0,0.7,0c0.2,0,0.3,0,0.3-0.3
				c0-0.2,0-1.4,0.1-3.5l-1.4,0.7v6.1h-2.2v-5.1l-1.2,0.5v5.3c0,0.9,0.2,1,1.3,1H1749.2z M1742.3,76.8v-2.3l-0.2,0.2
				c-0.4-0.5-1.4-1.5-2-1.8c0.2-0.2,0.5-0.5,0.7-0.8h-4.2c0,0.8,0,1.6-0.1,2.4h4v1l0,2.2L1742.3,76.8z"/>
			<path d="M1773.2,70.2v11h-2.8V80h-5v6.9h-2.8V80h-5v1.2h-2.6V70.2h7.6v-3.8h2.8v3.8H1773.2z M1762.7,77.5v-4.7h-5v4.7H1762.7z
				 M1770.5,77.5v-4.7h-5v4.7H1770.5z"/>
		</g>
	</g>
</g>
</svg>
