<svg xmlns="http://www.w3.org/2000/svg" width="403.713" height="96.256" viewBox="0 0 403.713 96.256"><g transform="translate(-77.42 -129.1)"><rect width="9.629" height="57.757" transform="translate(194.739 148.34)"/><path d="M156.675,140H151.86v9.629h4.815a19.258,19.258,0,1,1,0,38.516H151.86v9.611h4.815a28.887,28.887,0,0,0,0-57.757" transform="translate(57.322 8.394)"/><path d="M221.9,178.461a19.276,19.276,0,0,1-35.4-4.815h47.136a31,31,0,0,0,.389-4.815,28.852,28.852,0,1,0-1.646,9.629Zm-16.674-28.887a19.258,19.258,0,0,1,18.639,14.444H186.57a19.276,19.276,0,0,1,18.656-14.444" transform="translate(76.156 8.395)"/><path d="M304.359,139.97H294.111L272.87,197.727H283.1Z" transform="translate(150.506 8.37)"/><path d="M300.59,139.97l-5.115,13.948,7.647,20.78H287.81l-3.54,9.629h22.391l4.938,13.4h10.249Z" transform="translate(159.285 8.37)"/><rect width="9.629" height="57.757" transform="translate(322.289 148.34)"/><path d="M257.6,139.97l-19.24,11.116-14.444-8.337v11.116l14.444,8.337,19.24-11.116v46.641h9.629V139.97Z" transform="translate(112.812 8.37)"/><path d="M268.9,144.785V139.97H259.27v14.444Z" transform="translate(140.033 8.37)"/><path d="M259.27,156.169v36.5H268.9V146.54Z" transform="translate(140.033 13.43)"/><path d="M101.8,215.37V167.242l41.685-24.073-8.691-5.009L93.11,162.233V210.36Z" transform="translate(12.082 6.977)"/><path d="M86.093,206.31V158.164l41.685-24.055L119.1,129.1,77.42,153.155v48.128Z" transform="translate(0 0)"/><path d="M93.943,210.84V162.712l41.685-24.073-8.691-5.009L85.27,157.685V205.83Z" transform="translate(6.045 3.488)"/><path d="M114.311,166.363a4.266,4.266,0,0,1,6.39,1.363l21.913-12.656V142.68L101,166.77V214.9l41.685-24.073v-12.39l-21.931,12.656a15.275,15.275,0,0,1-6.425,8.726,4.354,4.354,0,0,1-6.956-4,15.311,15.311,0,0,1,6.956-12.036,4.283,4.283,0,0,1,6.372,1.327l21.984-12.691V161.053l-21.9,12.638a15.311,15.311,0,0,1-6.408,8.673,4.372,4.372,0,0,1-6.956-4.018,15.311,15.311,0,0,1,6.956-12.019" transform="translate(18.158 10.457)"/></g></svg>