<?xml version="1.0" encoding="utf-8"?>
<!-- Generator: Adobe Illustrator 26.3.1, SVG Export Plug-In . SVG Version: 6.00 Build 0)  -->
<svg version="1.1" id="レイヤー_1" xmlns="http://www.w3.org/2000/svg" xmlns:xlink="http://www.w3.org/1999/xlink" x="0px"
	 y="0px" viewBox="0 0 289.1 24" style="enable-background:new 0 0 289.1 24;" xml:space="preserve">
<style type="text/css">
	.st0{fill:#1264AF;}
	.st1{enable-background:new    ;}
	.st2{fill:#FFFFFF;}
</style>
<g transform="translate(-1019.062 -3690)">
	<g>
		<rect x="1086.8" y="3705" class="st0" width="131" height="9"/>
	</g>
	<g class="st1">
		<path class="st2" d="M1048.6,3695.3c1.7,2.4,4.3,4.7,6.8,5.9c-0.5,0.5-0.9,1.1-1.2,1.7c-1-0.6-2-1.3-3-2.1v1.3h-6.8v-1.3
			c-0.9,0.8-1.9,1.5-3,2.1c-0.2-0.4-0.8-1.1-1.2-1.5c2.7-1.5,5.3-4.1,6.5-6H1048.6z M1051.7,3703.5l1.5,0.4c-0.8,2-1.9,4.5-2.9,6.5
			l-2-0.6c0.7-1.4,1.5-3.1,2.1-4.5h-8.2v-1.8h9.2L1051.7,3703.5z M1050.7,3700.3c-1.2-1-2.2-2.1-2.9-3.1c-0.7,1-1.7,2.1-2.8,3.1
			H1050.7z"/>
		<path class="st2" d="M1062.8,3698.3c0.8-0.1,1.5-0.3,2.2-0.5l0.1,1.9c-0.7,0.2-1.7,0.4-2.8,0.6c-0.8,2.2-2.1,5-3.4,6.9l-1.9-1
			c1.3-1.6,2.6-3.9,3.3-5.7c-0.3,0-0.6,0-0.8,0c-0.7,0-1.3,0-2-0.1l-0.1-1.9c0.7,0.1,1.5,0.1,2.1,0.1c0.5,0,1,0,1.5-0.1
			c0.2-0.9,0.4-1.8,0.4-2.7l2.2,0.2C1063.3,3696.6,1063.1,3697.4,1062.8,3698.3z M1067.1,3703.1c0,0.5,0.1,1.2,0.1,2
			c1.4,0.5,2.5,1.3,3.3,2l-1.1,1.7c-0.6-0.5-1.3-1.2-2.2-1.7c0,0,0,0.1,0,0.2c0,1.5-0.8,2.6-3.1,2.6c-2,0-3.6-0.9-3.6-2.6
			c0-1.6,1.3-2.8,3.5-2.8c0.4,0,0.7,0,1.1,0.1c-0.1-1.2-0.1-2.6-0.2-3.6h2C1067.1,3701.8,1067.1,3702.4,1067.1,3703.1z
			 M1063.9,3708.2c1.1,0,1.4-0.6,1.4-1.5c0-0.1,0-0.2,0-0.3c-0.4-0.1-0.8-0.2-1.3-0.2c-0.9,0-1.5,0.4-1.5,1
			C1062.6,3707.8,1063.1,3708.2,1063.9,3708.2z M1066.1,3699.7l1-1.6c1.2,0.5,3.1,1.6,4,2.2l-1.1,1.7
			C1069,3701.2,1067.1,3700.2,1066.1,3699.7z"/>
		<path class="st2" d="M1075.3,3703.1c1.5-1.1,3-1.5,4.7-1.5c2.8,0,4.4,1.7,4.4,3.7c0,2.9-2.3,5.2-9,4.6l-0.6-2.1
			c4.8,0.7,7.3-0.5,7.3-2.5c0-1-1-1.8-2.4-1.8c-1.8,0-3.4,0.7-4.4,1.9c-0.3,0.4-0.4,0.6-0.6,0.9l-1.8-0.5c0.3-1.6,0.7-4.7,0.8-6.7
			l2.1,0.3C1075.7,3700.2,1075.4,3702.2,1075.3,3703.1z M1082.2,3697.4l-0.5,2c-1.6-0.2-5.2-1-6.4-1.3l0.5-1.9
			C1077.3,3696.6,1080.8,3697.2,1082.2,3697.4z"/>
		<path class="st2" d="M1100.9,3707h-6.4v3.4h-2v-3.4h-6.2v-1.8h6.2v-1.8h-4.7v-7.2h11.4v7.2h-4.8v1.8h6.4V3707z M1089.7,3698.9h7.5
			v-1.2h-7.5V3698.9z M1089.7,3701.7h7.5v-1.2h-7.5V3701.7z"/>
		<path class="st2" d="M1107.3,3696.9h3.4v2.7h-0.8v1.2h-2.6v0.7h2.3v1.3h-2.3v0.7h3.2v1.5h-8.2v-1.5h3.3v-0.7h-2.4v-1.3h2.4v-0.7
			h-2.5v-1.2h-0.8v-2.7h3.3v-1.3h1.8V3696.9z M1103.1,3705.5h6.7v4.8h-1.8v-0.6h-3.2v0.7h-1.7V3705.5z M1108.9,3698.3h-5v1.2h1.6
			v-0.9h1.7v0.9h1.6V3698.3z M1104.8,3706.9v1.4h3.2v-1.4H1104.8z M1113.2,3706.1h-1.8v-8.9h1.8V3706.1z M1116.5,3695.7v12.3
			c0,1.1-0.2,1.6-0.8,1.9c-0.6,0.3-1.6,0.4-2.9,0.4c-0.1-0.5-0.4-1.4-0.6-2c0.9,0,1.8,0,2.2,0c0.3,0,0.4-0.1,0.4-0.4v-12.3H1116.5z"
			/>
		<path class="st2" d="M1122.5,3707.1h2.5v-7.2h-2.1v-1.5c1.2-0.2,2-0.5,2.8-1h1.7v9.6h2.2v1.9h-7.1V3707.1z"/>
		<path class="st2" d="M1131.5,3711.1c1.2-0.5,1.9-1.3,1.9-2.2c0,0-0.1,0-0.1,0c-0.8,0-1.5-0.5-1.5-1.4c0-0.8,0.7-1.4,1.5-1.4
			c1.1,0,1.7,0.9,1.7,2.3c0,1.9-1.1,3.3-3,3.9L1131.5,3711.1z"/>
		<path class="st2" d="M1136.2,3707.6l1.1-1.5c0.7,0.7,1.5,1.2,2.6,1.2c1.2,0,2.1-0.7,2.1-2c0-1.3-0.8-2-2-2c-0.7,0-1.1,0.2-1.8,0.6
			l-1.1-0.7l0.3-5.8h6.3v2h-4.3l-0.2,2.5c0.5-0.2,0.9-0.3,1.4-0.3c2,0,3.6,1.1,3.6,3.6c0,2.5-2,4-4.1,4
			C1138.4,3709.2,1137.1,3708.5,1136.2,3707.6z"/>
		<path class="st2" d="M1145.9,3703.2c0-3.9,1.6-5.9,4-5.9c2.4,0,4,2,4,5.9c0,3.9-1.6,6-4,6
			C1147.5,3709.2,1145.9,3707.1,1145.9,3703.2z M1151.7,3703.2c0-3.2-0.8-4.1-1.8-4.1s-1.8,0.9-1.8,4.1c0,3.2,0.8,4.2,1.8,4.2
			S1151.7,3706.4,1151.7,3703.2z"/>
		<path class="st2" d="M1155.4,3703.2c0-3.9,1.6-5.9,4-5.9c2.4,0,4,2,4,5.9c0,3.9-1.6,6-4,6
			C1156.9,3709.2,1155.4,3707.1,1155.4,3703.2z M1161.2,3703.2c0-3.2-0.8-4.1-1.8-4.1s-1.8,0.9-1.8,4.1c0,3.2,0.8,4.2,1.8,4.2
			S1161.2,3706.4,1161.2,3703.2z"/>
		<path class="st2" d="M1178.9,3708.2c0,1-0.2,1.6-0.9,1.9c-0.6,0.3-1.6,0.4-3,0.4c-0.1-0.5-0.4-1.4-0.7-1.9c0.9,0.1,2,0,2.3,0
			c0.3,0,0.4-0.1,0.4-0.4v-3.9h-9.7v6.1h-1.9v-13.9h13.5V3708.2z M1167.3,3702.4h3.8v-4h-3.8V3702.4z M1177,3702.4v-4h-4v4H1177z"/>
		<path class="st2" d="M1184.6,3703c0-3.9,2.2-6.1,5.3-6.1c3.1,0,5.3,2.3,5.3,6.1c0,3.8-2.2,6.2-5.3,6.2
			C1186.7,3709.2,1184.6,3706.9,1184.6,3703z M1192.8,3703c0-2.5-1.1-4.1-2.9-4.1s-2.9,1.5-2.9,4.1c0,2.5,1.1,4.1,2.9,4.1
			S1192.8,3705.6,1192.8,3703z"/>
		<path class="st2" d="M1197.5,3697.1h7.3v2h-4.9v3.1h4.2v2h-4.2v4.8h-2.4V3697.1z"/>
		<path class="st2" d="M1206.8,3697.1h7.3v2h-4.9v3.1h4.2v2h-4.2v4.8h-2.4V3697.1z"/>
	</g>
	<g>
		<path class="st2" d="M1029.4,3711.8l-5.6-15.1l1.9-0.7l5.6,15.1L1029.4,3711.8z"/>
	</g>
	<g>
		<path class="st2" d="M1024.6,3711.8l-5.6-15.1l1.9-0.7l5.6,15.1L1024.6,3711.8z"/>
	</g>
	<g>
		<path class="st2" d="M1297.8,3711.8l-1.9-0.7l5.6-15.1l1.9,0.7L1297.8,3711.8z"/>
	</g>
	<g>
		<path class="st2" d="M1302.6,3711.8l-1.9-0.7l5.6-15.1l1.9,0.7L1302.6,3711.8z"/>
	</g>
	<g class="st1">
		<path class="st2" d="M1225.1,3703.5c0-4.4,2.2-6.3,4.6-6.3c1.4,0,2.5,0.6,3.2,1.3l-1.2,1.4c-0.4-0.5-1.1-0.8-1.8-0.8
			c-1.4,0-2.5,1-2.6,4c0.7-0.8,1.7-1.3,2.4-1.3c2,0,3.4,1.1,3.4,3.6c0,2.4-1.7,3.8-3.7,3.8
			C1227.1,3709.2,1225.1,3707.5,1225.1,3703.5z M1227.3,3704.8c0.2,2,1,2.7,2,2.7c0.9,0,1.6-0.7,1.6-2.1c0-1.3-0.7-1.9-1.7-1.9
			C1228.6,3703.5,1227.9,3703.8,1227.3,3704.8z"/>
		<path class="st2" d="M1238,3696.1h1.6l-4,15.8h-1.6L1238,3696.1z"/>
		<path class="st2" d="M1240.4,3707.6l1.1-1.5c0.7,0.7,1.6,1.2,2.6,1.2c1.2,0,2-0.6,2-1.6c0-1.1-0.7-1.8-3.3-1.8v-1.7
			c2.2,0,2.9-0.7,2.9-1.7c0-0.9-0.6-1.4-1.6-1.4c-0.8,0-1.5,0.4-2.2,1.1l-1.2-1.4c1-0.9,2.2-1.5,3.6-1.5c2.3,0,3.8,1.1,3.8,3.1
			c0,1.2-0.7,2.1-2,2.6v0.1c1.3,0.4,2.4,1.3,2.4,2.8c0,2.1-1.9,3.3-4.2,3.3C1242.5,3709.2,1241.2,3708.5,1240.4,3707.6z"/>
		<path class="st2" d="M1250.7,3707.1h2.5v-7.2h-2.1v-1.5c1.2-0.2,2-0.5,2.8-1h1.7v9.6h2.2v1.9h-7.1V3707.1z"/>
		<path class="st2" d="M1267.5,3697.2c0,0.2,0,0.4,0,0.7c1.3-0.1,2.6-0.2,4-0.4l0,1.8c-1.1,0.1-2.5,0.3-4.1,0.4c0,0.6,0,1.2,0,1.6
			c1.6-0.1,3-0.2,4.3-0.4l0,1.9c-1.4,0.2-2.7,0.3-4.2,0.3c0,0.6,0.1,1.3,0.1,1.9c2,0.6,3.6,1.6,4.5,2.4l-1.2,1.8
			c-0.9-0.8-2-1.6-3.2-2.2c0,0.2,0,0.4,0,0.6c0,1.4-1,2.4-3.2,2.4c-2.6,0-3.9-1-3.9-2.7c0-1.6,1.5-2.8,4-2.8c0.3,0,0.7,0,1,0
			c0-0.5,0-1-0.1-1.5c-0.3,0-0.5,0-0.8,0c-0.9,0-2.8-0.1-3.8-0.2l0-1.9c1,0.2,3,0.3,3.9,0.3c0.3,0,0.5,0,0.8,0c0-0.5,0-1.1,0-1.6
			c-0.2,0-0.4,0-0.6,0c-1,0-2.9-0.1-3.9-0.3l0-1.8c1.2,0.2,3,0.4,4,0.4c0.2,0,0.4,0,0.6,0c0-0.3,0-0.6,0-0.8c0-0.3,0-0.8-0.1-1.1
			h2.2C1267.5,3696.4,1267.5,3696.8,1267.5,3697.2z M1264.3,3708.2c0.8,0,1.4-0.2,1.4-1.2c0-0.2,0-0.4,0-0.7
			c-0.4-0.1-0.9-0.1-1.3-0.1c-1.1,0-1.8,0.4-1.8,1C1262.6,3707.8,1263.2,3708.2,1264.3,3708.2z"/>
		<path class="st2" d="M1275.2,3697.9c1.3-0.1,4-0.4,6.9-0.6c1.6-0.1,3.4-0.2,4.5-0.3l0,2c-0.9,0-2.2,0-3.1,0.2
			c-1.9,0.5-3.4,2.6-3.4,4.5c0,2.6,2.5,3.6,5.2,3.7l-0.8,2.2c-3.4-0.2-6.5-2-6.5-5.5c0-2.3,1.3-4.1,2.4-4.9
			c-1.5,0.2-4.8,0.5-6.6,0.9l-0.2-2.2C1274.2,3698,1274.9,3698,1275.2,3697.9z M1285.6,3702.9l-1.2,0.5c-0.4-0.9-0.7-1.5-1.2-2.2
			l1.2-0.5C1284.7,3701.3,1285.3,3702.2,1285.6,3702.9z M1287.5,3702.1l-1.2,0.6c-0.4-0.9-0.8-1.5-1.3-2.2l1.2-0.5
			C1286.5,3700.5,1287.1,3701.4,1287.5,3702.1z"/>
	</g>
</g>
</svg>
