<?xml version="1.0" encoding="utf-8"?>
<!-- Generator: Adobe Illustrator 26.3.1, SVG Export Plug-In . SVG Version: 6.00 Build 0)  -->
<svg version="1.1" id="レイヤー_1" xmlns="http://www.w3.org/2000/svg" xmlns:xlink="http://www.w3.org/1999/xlink" x="0px"
	 y="0px" viewBox="0 0 1127 195" style="enable-background:new 0 0 1127 195;" xml:space="preserve">
<style type="text/css">
	.st0{enable-background:new    ;}
	.st1{fill:#F2F2F2;}
</style>
<g class="st0">
	<path class="st1" d="M76.1,152l-32.3-32.3V152H13.4V0.1h30.4v75.7l32.3-32.3h27.1v29.9H89.1L64.8,97.8l24.3,24.3h14.1V152H76.1z"/>
	<path class="st1" d="M221,152V78l-4.6-4.6h-46.2V152h-30.4V43.5h89.6l21.9,21.9V152H221z"/>
	<path class="st1" d="M311.1,152l-21.9-21.9V65.4l21.9-21.9h67.7l21.9,21.9v64.7L378.8,152H311.1z M370.3,78l-4.6-4.6h-41.7
		l-4.6,4.6v39.5l4.6,4.6h41.7l4.6-4.6V78z"/>
	<path class="st1" d="M460.4,152l-21.9-21.9V43.5h30.4v74l4.6,4.6h6.7v-46h28.2v46h6.7l4.6-4.6v-74H550v86.6L528.1,152H460.4z"/>
	<path class="st1" d="M592.1,101.9V71.9h68.1v29.9H592.1z"/>
	<path class="st1" d="M785.6,152V78l-4.6-4.6h-46.2V152h-30.4V0.1h30.4v43.4h59.2L816,65.4V152H785.6z"/>
	<path class="st1" d="M875.7,152l-21.9-21.9V65.4l21.9-21.9h67.7l21.9,21.9v64.7L943.4,152H875.7z M934.9,78l-4.6-4.6h-41.7
		l-4.6,4.6v39.5l4.6,4.6h41.7l4.6-4.6V78z"/>
	<path class="st1" d="M1025,152l-21.9-21.9V43.5h30.4v74l4.6,4.6h6.7v-46h28.2v46h6.7l4.6-4.6v-74h30.4v86.6l-21.9,21.9H1025z"/>
</g>
</svg>
