<?xml version="1.0" encoding="utf-8"?>
<!-- Generator: Adobe Illustrator 26.3.1, SVG Export Plug-In . SVG Version: 6.00 Build 0)  -->
<svg version="1.1" id="レイヤー_1" xmlns="http://www.w3.org/2000/svg" xmlns:xlink="http://www.w3.org/1999/xlink" x="0px"
	 y="0px" viewBox="0 0 970 196" style="enable-background:new 0 0 970 196;" xml:space="preserve">
<style type="text/css">
	.st0{enable-background:new    ;}
	.st1{fill:#F2F2F2;}
</style>
<g class="st0">
	<path class="st1" d="M8.9,152v-27.8h71.2l4.6-4.6v-3.5l-4.6-4.6H28.7L6.7,89.7V65.4l21.9-21.9h82v27.8h-69l-4.6,4.6v3.5l4.6,4.6
		h50.6l22.8,21.9v24.3L93.1,152H8.9z"/>
	<path class="st1" d="M171.4,152l-21.9-21.9V43.5h30.4v74l4.6,4.6h46.2V43.5h30.4V152H171.4z"/>
	<path class="st1" d="M415.8,130.1L393.9,152h-59.2v43.4h-30.4V43.5h89.6l21.9,21.9V130.1z M385.4,117.5V78l-4.6-4.6h-46.2v48.6
		h46.2L385.4,117.5z"/>
	<path class="st1" d="M567.2,130.1L545.3,152h-59.2v43.4h-30.4V43.5h89.6l21.9,21.9V130.1z M536.9,117.5V78l-4.6-4.6h-46.2v48.6
		h46.2L536.9,117.5z"/>
	<path class="st1" d="M625.8,152l-21.9-21.9V65.4l21.9-21.9h67.7l21.9,21.9v64.7L693.5,152H625.8z M685.1,78l-4.6-4.6h-41.7
		l-4.6,4.6v39.5l4.6,4.6h41.7l4.6-4.6V78z"/>
	<path class="st1" d="M746.7,152v-29.9h21.7V73.4h-21.7V43.5h85.9l21.9,21.9v25.8h-30.4V78l-4.6-4.6h-20.8v48.6H827V152H746.7z"/>
	<path class="st1" d="M964.3,152h-45.8l-21.9-21.9V73.4h-21.7V43.5h21.7V9.9H927v33.6h26v29.9h-26v44.1l4.6,4.6h32.8V152z"/>
</g>
</svg>
