<svg xmlns="http://www.w3.org/2000/svg" width="525.568" height="96.001" viewBox="0 0 525.568 96.001"><g transform="translate(-31.193 -10.382)"><g transform="translate(31.193 10.382)"><path d="M108.106,70.474h12.208c.565,0,.864-.423.97-.97l1.87-11.714a.829.829,0,0,0-.653-.97h-.159l-12.561-.688a1.129,1.129,0,0,0-1.217.953l-1.411,12.349a.882.882,0,0,0,.759.988Z" transform="translate(26.846 24.573)" fill="#265b41"/><path d="M84.483,28.141,72.91,30.258a.953.953,0,0,0-.794.864L68.941,64.641,65.412,32.728a.935.935,0,0,0-1.023-.847h-.106L52.5,34.068a.97.97,0,0,0-.794.829L47.647,66.37,44.842,36.5a.97.97,0,0,0-1.058-.864h0l-11.8,2.152a.97.97,0,0,0-.776,1.111h0l8.468,52.13a.97.97,0,0,0,.953.829H54.14A.97.97,0,0,0,55.11,91l3.211-30.943L61.143,90.98a.953.953,0,0,0,.953.864H75.838a.953.953,0,0,0,.953-.812l8.821-61.745a.97.97,0,0,0-.812-1.094.67.67,0,0,0-.318-.053Z" transform="translate(-31.193 3.186)" fill="#265b41"/><path d="M104.993,28.5C93.72,26.31,84,29.838,84,44.6V70.254c0,15.666,5.5,22.74,17.853,22.74s18.206-6.21,19.406-20.182l2.082-22.934C124.452,38.553,117.942,30.932,104.993,28.5Zm1.323,44.527c-.353,7.251-2.629,7.233-3.758,7.233S98.8,80.1,99.136,72.424l.741-24.945c.212-5.628,1.888-6.757,4.058-6.4,3.352.547,3.863,3.352,3.652,7.709Z" transform="translate(9.16 3.006)" fill="#265b41"/><path d="M111.494,33.084s-1.764,13.69-1.764,13.725v.159l.476,23.675a.882.882,0,0,0,.882.847l6.739.476a1.253,1.253,0,0,0,1.253-.794s7.2-22.122,7.2-22.158V48.89l2.417-13.143a.882.882,0,0,0-.776-.97h0l-14.889-2.664A1.288,1.288,0,0,0,111.494,33.084Z" transform="translate(28.821 6.2)" fill="#265b41"/><path d="M100.125,104.248,86.576,41.586l6.58,5.292a.97.97,0,0,0,1.552-.953L85.976,11a.969.969,0,0,0-1.87.282l1.129,20.8-5.292-5.292a.97.97,0,0,0-1.376,0,1.076,1.076,0,0,0-.265.459L61.014,104.266a.935.935,0,0,0,.67,1.147H74.068a1.006,1.006,0,0,0,.97-.829l1.394-9.244h7.9l1.517,9.262a.953.953,0,0,0,.935.812H99.137a.935.935,0,0,0,.97-.9.775.775,0,0,0,0-.282m-22-19.97,2.646-16.212,2.24,16.212Z" transform="translate(-8.429 -10.382)" fill="#d6802e"/><rect width="18.4" height="5.363" transform="translate(431.028 63.399)"/><rect width="18.4" height="5.363" transform="translate(493.514 63.399)"/><rect width="18.4" height="5.363" transform="translate(431.028 72.555)"/><path d="M337.531,48.9c0,9.791-3.528,21.611-23.092,21.611H310.91V76h3.528c19.529,0,28.579-10.355,28.579-27.1Z" transform="translate(182.551 19.051)"/><path d="M302.159,48.9c0,9.791-3.528,21.611-23.11,21.611H275.52V76h3.528c19.529,0,28.579-10.355,28.579-27.1Z" transform="translate(155.508 19.051)"/><path d="M241.838,72.429V46.32H236.21V77.969h3.758c17.289,0,27.538-9.05,28.491-24.91H262.99C261.949,66.925,253,71.918,241.838,72.429Z" transform="translate(125.47 17.079)"/><rect width="28.509" height="5.716" transform="translate(289.332 76.366)"/><rect width="28.509" height="5.716" transform="translate(397.139 76.366)"/><path d="M177.32,47.19v5.486h22.052V70.283H177.32v5.486h27.962V47.19Z" transform="translate(80.469 17.744)"/><path d="M128.32,46.32V61.333h6.016V51.806h21.258c-.476,6.863-1.888,11.52-4.957,14.625-3.352,3.528-8.591,5.292-17.236,5.857v5.628c10.373-.811,16.777-3.193,21.17-7.727,4.763-4.8,6.951-12.349,7.057-23.869Z" transform="translate(43.026 17.079)"/><path d="M174.162,52.28a5.292,5.292,0,1,0,5.292,5.292h0A5.292,5.292,0,0,0,174.162,52.28Z" transform="translate(74.012 21.634)"/><path d="M245.854,54.882a7.339,7.339,0,0,1-2.223.37,7.057,7.057,0,0,1-6.21-3.669h-4.693V45.62H227.1v5.786H213.57v5.469H227.1V78.5h5.628V56.875h13.143Z" transform="translate(108.169 16.544)"/><path d="M232.9,44.14a5.292,5.292,0,1,0,5.292,5.292h0A5.292,5.292,0,0,0,232.9,44.14Zm0,8.4a3.1,3.1,0,1,1,3.1-3.034A3.105,3.105,0,0,1,232.9,52.537Z" transform="translate(118.898 15.413)"/><path d="M213.06,65.42v6.527c8.821-3.175,10.426-11.626,10.461-17.747h-5.628C217.858,58.981,216.765,63.127,213.06,65.42Z" transform="translate(107.78 23.101)"/><path d="M232.218,54.13H226.59c0,6.192,1.676,14.8,10.779,17.871V65.544C233.435,63.268,232.271,59.052,232.218,54.13Z" transform="translate(118.118 23.047)"/><path d="M295.629,50.47v4.393h17.624v5.381H296.158v4.375h17.095V70.4H295.17V74.8h23.022V50.47Z" transform="translate(170.523 20.25)"/><path d="M172.793,45.62h-5.487v5.786H148.4v5.469h15.666a36.077,36.077,0,0,1-15.7,12.349v5.892a42.34,42.34,0,0,0,18.947-13.531V73.017H160.25V78.5h7.057a5.487,5.487,0,0,0,5.486-5.486V56.875h8.45V51.406h-8.486Z" transform="translate(58.34 16.544)"/><path d="M138.973,46.24a14.448,14.448,0,0,0,5.292-3.758,18.331,18.331,0,0,1-1.888-4.957c-.37.547-.512.794-.759,1.111l-2.011-2.487c.37-.512.512-.653.67-.917H137.35c-.247.229-.6.635-1.535,1.5h3.9v2.258a15.543,15.543,0,0,1-2.946,2.293v.388c2.258-.247,3.246-.37,4.34-.529v2.54c-.882.159-1.535.247-4.34.6v2.505c0,1.623-.494,2.24-2.311,2.24h-3.193l-.494-2.7h2.505c.635,0,.741-.141.741-.67V44.617c-.723,0-4.322.388-5.151.423l-.194-2.717c1.341,0,2.452-.141,5.292-.37V40.4h.653a7.216,7.216,0,0,0,1.464-1.376h-3.246a22.438,22.438,0,0,1-2.911,1.764L128.6,38.266a22.932,22.932,0,0,0,4.957-3.087H128.9V32.586h4.128v-1.87h-3.617V28.228h3.528v-1.87h2.7v1.87h2.752V29.6a22.634,22.634,0,0,0,1.323-2.611l2.505,1.147a26.457,26.457,0,0,1-2.7,4.446h1.341v1.641a24.257,24.257,0,0,0,2.382-7.956l2.823.247a19.012,19.012,0,0,1-.512,3.158h5.769v3.034h-1.111a21.946,21.946,0,0,1-2.47,9.65,21.171,21.171,0,0,0,3.987,3.652l-1.764,3a20.11,20.11,0,0,1-4.146-3.969,21.048,21.048,0,0,1-5.063,4ZM135.6,30.733V32.6h.582a21.545,21.545,0,0,0,1.482-1.87Zm9.156,2.117c-.212.565-.335.864-.459,1.147a16.989,16.989,0,0,0,1.764,5.857,19.51,19.51,0,0,0,1.464-7.057Z" transform="translate(43.24 1.758)"/><path d="M161.7,35.6a17.2,17.2,0,0,0-1.87-1.764c-2.17.229-10.867.847-16.636.882L143,32.109h4.463a14.984,14.984,0,0,0,1.147-1.87H142.35v-2.4h9.826v-1.5h2.964v1.5H165V30.4h-5.292a28.088,28.088,0,0,1,4.551,3.317Zm.529,11.026a2.046,2.046,0,0,1-1.764,2.293,1.659,1.659,0,0,1-.512,0h-4.463l-.6-2.734h3.758c.512,0,.67,0,.67-.547V44.616H148.066v4.3h-3V35.69h17.306Zm-2.964-8.821H148.013v1.358h11.255Zm0,3.387H148.013V42.57h11.255Zm-2.029-10.832h-5.292c-.741,1.129-.776,1.182-1.2,1.764,2.082,0,3.9-.159,6.016-.247-.37-.194-.423-.247-1.164-.67Z" transform="translate(53.747 1.812)"/><path d="M167.543,47.805c-8.256,0-11.273-3.017-11.273-6.739s3.158-6.351,7.515-7.745c-.247-1.888-.812-6.421-.812-6.421H166.5s.353,3.528.617,5.628a57.4,57.4,0,0,1,8.821-.988v3.175c-8.821.194-16.212,2.205-16.212,6.139,0,2.646,2.946,3.881,7.992,3.881a47.1,47.1,0,0,0,8.486-.882v3.228A64.691,64.691,0,0,1,167.543,47.805Z" transform="translate(64.384 2.24)"/><path d="M169.24,46.037v-3.07h8.627V30.813h-7.286V27.69H188.91v3.123h-7.656V43.038h9.138v3.07Z" transform="translate(74.295 2.843)"/><path d="M182.77,30.664V27.33a89.018,89.018,0,0,1,10.356,1.394v3.44a76.276,76.276,0,0,0-10.356-1.5Zm.282,16.477V43.878c8.644-.706,14.5-3.317,15.648-13.143h3.528C201.117,42.36,194.2,46.7,183.052,47.141Z" transform="translate(84.634 2.568)"/><path d="M197.827,47.609V44.5c5.469-.829,9.1-2.8,11.4-5.786a70.781,70.781,0,0,0-9.809-1.888V34.254a13.849,13.849,0,0,1-4.6,3.317V34.148a13.62,13.62,0,0,0,5.2-6.968H215.98v.265C215.574,37.906,211.393,46.268,197.827,47.609Zm4.41-17.377a19.636,19.636,0,0,1-2.505,3.687,82.421,82.421,0,0,1,11.149,1.976,19.4,19.4,0,0,0,1.482-5.628Z" transform="translate(93.834 2.454)"/><path d="M220.716,39.741a18.964,18.964,0,0,1-12.6,8.168V44.733a16.212,16.212,0,0,0,9.72-6.421,45.3,45.3,0,0,0-8.168-2.928V32.19a67.173,67.173,0,0,1,9.632,3.4,27.43,27.43,0,0,0,2.117-8.715h3.387a30.675,30.675,0,0,1-2.576,10.179,61.436,61.436,0,0,1,6.28,3.528v3.969a60.949,60.949,0,0,0-7.8-4.816Z" transform="translate(104.005 2.224)"/><path d="M232.031,47.352V44.336a7.321,7.321,0,0,0,7.162-7.48v-.194a6.175,6.175,0,0,0-5.292-6.351c-.776,5.928-1.993,11.061-3.758,13.831a4.3,4.3,0,0,1-3.811,2.117c-2.452,0-5.381-2.823-5.381-7.8a10.938,10.938,0,0,1,10.585-11.255,3.81,3.81,0,0,1,.635,0c6.527,0,10.2,4.04,10.2,9.509C242.439,44.106,237.359,47.123,232.031,47.352Zm-7.974-8.821c0,2.84,1.429,4.534,2.258,4.534.529,0,1.058-.37,1.888-2.117a40.87,40.87,0,0,0,2.576-10.726,8.027,8.027,0,0,0-6.721,8.274Z" transform="translate(113.807 2.463)"/><path d="M234.17,27.167h12.649v2.364H234.17Zm.565,9.7h11.59V47.225a1.552,1.552,0,0,1-1.358,1.764h-2.435l-.335-2.452h1.394c.353,0,.37-.176.37-.353V42.162h-1.87a1.041,1.041,0,0,1-1.111-.988V38.951h-.741a5.734,5.734,0,0,1-1.341,3.758l-1.5-1.076a3.758,3.758,0,0,0,1.323-2.681h-1.376v10.02h-2.452Zm.6-6.21h10.585v5.151H235.458Zm8.1,12.472V45h-1.764V48.2h-2.152V45h-1.87v-1.87Zm-5.451-10.585v1.394h5.1V32.547Zm4.71,6.439v1.076a.388.388,0,0,0,.441.441h.9V38.987Zm11.978,10.038V47.26a47.4,47.4,0,0,1-7.515,1.411l-.282-3.052a28.7,28.7,0,0,0,3.528-.335V40.61h-3.3V29.848h3.317V26.32h2.593v3.528h3.369V40.61h-3.528V44.9l1.288-.247c-.088-.723-.194-1.376-.441-2.593l2.117-.37a29.989,29.989,0,0,1,1.2,6.951Zm-5.381-16.459v5.292h1.217V32.53Zm3.669,0v5.292h1.235V32.53Z" transform="translate(123.911 1.796)"/><path d="M269.076,35.791a27.375,27.375,0,0,1-3.652-1.87v1.87H253.075V33.851a31.044,31.044,0,0,1-3.758,1.87L247.73,32.7a22.934,22.934,0,0,0,10.056-6.4h3.052a22.934,22.934,0,0,0,10.038,6.4Zm-.864,2.082V48.458H249.97V37.873Zm-3.087,2.717H253.075v5.292h12.049Zm-.935-7.515a23.569,23.569,0,0,1-5.063-4.287,21.681,21.681,0,0,1-4.957,4.287Z" transform="translate(134.272 1.781)"/></g></g></svg>